<svg id="Capa_1" data-name="Capa 1" xmlns="http://www.w3.org/2000/svg" xmlns:xlink="http://www.w3.org/1999/xlink" viewBox="0 0 141.73 141.73"><defs><style>.cls-1,.cls-11,.cls-12,.cls-14,.cls-15{fill:none;}.cls-1,.cls-15,.cls-17{stroke:#fff;}.cls-1,.cls-17{stroke-miterlimit:10;stroke-width:0.25px;}.cls-13,.cls-17,.cls-2,.cls-4,.cls-5{fill:#fff;}.cls-3,.cls-9{fill:#008eb0;}.cls-4{font-size:43px;}.cls-10,.cls-13,.cls-4,.cls-5,.cls-8,.cls-9{font-family:ITC Avant Garde Gothic Std;}.cls-4,.cls-5,.cls-9{font-weight:700;}.cls-5,.cls-6{font-size:30.62px;}.cls-6{font-family:Austin Cyr;font-style:italic;}.cls-10,.cls-7,.cls-8{fill:#8abfd4;}.cls-8{font-size:3.28px;}.cls-9{font-size:2.2px;}.cls-10{font-size:3.77px;}.cls-11,.cls-12{stroke:#87bed3;}.cls-11,.cls-12,.cls-15{stroke-linejoin:round;}.cls-12,.cls-15{stroke-linecap:round;}.cls-13{font-size:7.42px;}.cls-15{stroke-width:0.75px;}.cls-16{clip-path:url(#clip-path);}.cls-18{clip-path:url(#clip-path-2);}.cls-19{clip-path:url(#clip-path-3);}</style><clipPath id="clip-path" transform="translate(-1 0)"><path class="cls-1" d="M132.1,131.77v-8h-1.78v-1.84h-2.16v1.84h-1.78v8h-2.12v2.56h10v-2.56H132.1Zm-3.37-5.84h1v5.84h-1v-5.84Z"/></clipPath><clipPath id="clip-path-2" transform="translate(-1 0)"><path class="cls-2" d="M16.95,111v-7.77H15.22v-1.79h-2.1v1.79H11.4V111H9.33v2.49H19V111H16.95Zm-3.28-5.67h1V111h-1v-5.67Z"/></clipPath><clipPath id="clip-path-3" transform="translate(-1 0)"><path class="cls-2" d="M17.38,132.07v-8.22H15.56V122H13.34v1.89H11.51v8.22H9.33v2.63H19.57v-2.63H17.38Zm-3.46-6H15v6H13.92v-6Z"/></clipPath></defs><title>2d6s</title><rect class="cls-3" x="2" y="2" width="137.73" height="137.73"/><path class="cls-2" d="M138.73,4V137.73H5V4H138.73m4-4H1V141.73H142.73V0h0Z" transform="translate(-1 0)"/><text class="cls-4" transform="translate(28.93 67.83)">2</text><text class="cls-5" transform="translate(55.41 67.83) scale(0.91 1)">d</text><text class="cls-4" transform="translate(74.79 67.83)">6<tspan class="cls-6" x="26.58" y="0">s</tspan></text><text x="-1"/><circle class="cls-7" cx="130.37" cy="7.51" r="0.68"/><path class="cls-7" d="M132.5,10.38a0.43,0.43,0,0,1-.43.43h-1.39a0.43,0.43,0,0,1-.43-0.43V8.81a0.43,0.43,0,0,1,.43-0.43h1.39a0.43,0.43,0,0,1,.43.43v1.57h0Z" transform="translate(-1 0)"/><path class="cls-7" d="M132,13.11a0.33,0.33,0,0,1-.33.33h-0.51a0.34,0.34,0,0,1-.34-0.33V10.84a0.34,0.34,0,0,1,.34-0.34h0.51a0.34,0.34,0,0,1,.33.34v2.27Z" transform="translate(-1 0)"/><text x="-1"/><path class="cls-7" d="M132,16.8a0.39,0.39,0,0,0,.26.09,0.41,0.41,0,0,0,.32-0.15,0.42,0.42,0,0,0-.06-0.59l-1-.82a0.41,0.41,0,0,0-.51,0l-1,.82a0.42,0.42,0,0,0-.06.59,0.41,0.41,0,0,0,.58.06l0.36-.29V21l-0.36-.29a0.41,0.41,0,1,0-.51.64l1,0.83a0.43,0.43,0,0,0,.26.09,0.43,0.43,0,0,0,.26-0.09l1-.83a0.41,0.41,0,1,0-.52-0.64l-0.36.29V16.51Z" transform="translate(-1 0)"/><text class="cls-8" transform="translate(131.93 19.67)">m</text><text x="-1"/><path class="cls-7" d="M133.91,29l-0.6-2.5a0.16,0.16,0,0,0-.14-0.12h-1a1.12,1.12,0,0,0,.26-0.73,1,1,0,0,0-1-1,1.05,1.05,0,0,0-1,1.06,1.09,1.09,0,0,0,.26.71h-0.95a0.17,0.17,0,0,0-.14.11L128.84,29a0.16,0.16,0,0,0,0,.13,0.14,0.14,0,0,0,.1.07h4.83a0.17,0.17,0,0,0,.1-0.08A0.2,0.2,0,0,0,133.91,29Zm-2.54-3.91a0.52,0.52,0,1,1-.51.51A0.51,0.51,0,0,1,131.37,25.09Z" transform="translate(-1 0)"/><text class="cls-9" transform="translate(129.83 28.62)">T</text><text class="cls-10" transform="translate(8.3 11.97)">Sense puntuació</text><text x="-1"/><line class="cls-11" x1="3.99" y1="116.17" x2="137.72" y2="116.17"/><line class="cls-12" x1="70.87" y1="99.61" x2="70.87" y2="132.73"/><text class="cls-13" transform="translate(83.41 108.06) scale(0.58 0.58)">%</text><text class="cls-13" transform="translate(83.41 126.38) scale(0.58 0.58)">%</text><text class="cls-13" transform="translate(54.71 108.06) scale(0.58 0.58)">% </text><text class="cls-13" transform="translate(54.66 126.38) scale(0.58 0.58)">% </text><polygon class="cls-14" points="129.63 105.23 129.63 106.94 129.63 110.98 130.64 110.98 130.64 107.13 130.64 105.23 129.63 105.23"/><polygon class="cls-1" points="129.26 105.6 130.27 105.6 130.27 107.5 132.59 107.92 132.59 103.47 130.83 103.47 130.83 101.65 128.7 101.65 128.7 103.47 126.95 103.47 126.95 106.89 129.26 107.31 129.26 105.6"/><polygon class="cls-2" points="131.31 107.55 129 107.13 129 110.98 127.98 110.98 127.98 106.94 125.67 106.52 125.67 110.98 123.58 110.98 123.58 113.5 133.4 113.5 133.4 110.98 131.31 110.98 131.31 107.55"/><polyline class="cls-15" points="123.18 131.1 123.18 127.54 133.15 127.54 133.15 130.32"/><polygon class="cls-2" points="132.22 130.05 133.15 131.66 134.09 130.05 132.22 130.05"/><g class="cls-16"><polygon class="cls-17" points="133.22 139.25 123.25 139.25 123.25 126.85 133.22 126.86 133.22 139.25"/></g><path class="cls-1" d="M132.1,131.77v-8h-1.78v-1.84h-2.16v1.84h-1.78v8h-2.12v2.56h10v-2.56H132.1Zm-3.37-5.84h1v5.84h-1v-5.84Z" transform="translate(-1 0)"/><path class="cls-2" d="M16.95,111v-7.77H15.22v-1.79h-2.1v1.79H11.4V111H9.33v2.49H19V111H16.95Zm-3.28-5.67h1V111h-1v-5.67Z" transform="translate(-1 0)"/><g class="cls-18"><rect class="cls-2" x="8.33" y="106.24" width="9.68" height="12.05"/></g><polyline class="cls-15" points="8.33 109.71 8.33 99.61 18.02 99.61 18.02 106.13"/><polygon class="cls-2" points="16.89 105.8 18.02 107.74 19.14 105.8 16.89 105.8"/><path class="cls-2" d="M17.38,132.07v-8.22H15.56V122H13.34v1.89H11.51v8.22H9.33v2.63H19.57v-2.63H17.38Zm-3.46-6H15v6H13.92v-6Z" transform="translate(-1 0)"/><g class="cls-19"><rect class="cls-2" x="8.33" y="127.02" width="10.24" height="12.73"/></g><polyline class="cls-15" points="8.33 130.82 8.33 120.14 11.61 120.14"/><polygon class="cls-2" points="11.28 121.26 13.22 120.14 11.28 119.02 11.28 121.26"/></svg>