<svg id="Capa_1" data-name="Capa 1" xmlns="http://www.w3.org/2000/svg" xmlns:xlink="http://www.w3.org/1999/xlink" viewBox="0 0 141.77 141.73"><defs><style>.cls-1,.cls-12{fill:#f9b29f;}.cls-13,.cls-15,.cls-2,.cls-8{fill:#f15e4d;}.cls-21,.cls-3{fill:#fff;}.cls-4{font-size:43px;}.cls-4,.cls-5,.cls-6,.cls-7,.cls-9{fill:#f9b39f;}.cls-12,.cls-4,.cls-5,.cls-7,.cls-8,.cls-9{font-family:ITC Avant Garde Gothic Std;}.cls-4,.cls-5,.cls-8{font-weight:700;}.cls-5{font-size:30.62px;}.cls-7{font-size:3.28px;}.cls-8{font-size:2.2px;}.cls-9{font-size:3.77px;}.cls-10,.cls-11,.cls-14,.cls-16{fill:none;}.cls-10,.cls-11,.cls-13,.cls-16{stroke:#f9b29e;stroke-linejoin:round;}.cls-11,.cls-13{stroke-linecap:round;}.cls-12{font-size:7.42px;}.cls-15{stroke:#f9b29f;stroke-miterlimit:10;stroke-width:0.25px;}.cls-16{stroke-width:0.75px;}.cls-17{fill:#f9b29e;}.cls-18{clip-path:url(#clip-path);}.cls-19{clip-path:url(#clip-path-2);}.cls-20{clip-path:url(#clip-path-3);}.cls-21{opacity:0.2;}</style><clipPath id="clip-path" transform="translate(0.03 0)"><path class="cls-1" d="M16.32,132.07v-8.22H14.49V122H12.27v1.89H10.45v8.22H8.26v2.63H18.5v-2.63H16.32Zm-3.46-6h1.05v6H12.86v-6Z"/></clipPath><clipPath id="clip-path-2" transform="translate(0.03 0)"><path class="cls-1" d="M16.32,111.08v-8.22H14.49V101H12.27v1.89H10.45v8.22H8.26v2.63H18.5v-2.63H16.32Zm-3.46-6h1.05v6H12.86v-6Z"/></clipPath><clipPath id="clip-path-3" transform="translate(0.03 0)"><path class="cls-1" d="M131.36,132.07v-8.22h-1.83V122h-2.22v1.89h-1.83v8.22h-2.18v2.63h10.24v-2.63h-2.18Zm-3.46-6H129v6H127.9v-6Z"/></clipPath></defs><title>3d9</title><rect class="cls-2" x="2" y="2" width="137.73" height="137.73"/><path class="cls-3" d="M137.7,4V137.73H4V4H137.7m4-4H0V141.73H141.7V0h0Z" transform="translate(0.03 0)"/><text class="cls-4" transform="translate(34.11 67.83)">3</text><text class="cls-5" transform="translate(60.59 67.83) scale(0.91 1)">d</text><text class="cls-4" transform="translate(79.98 67.83)">9</text><text x="0.03"/><circle class="cls-6" cx="130.37" cy="7.51" r="0.68"/><path class="cls-6" d="M131.47,10.38a0.43,0.43,0,0,1-.43.43h-1.39a0.43,0.43,0,0,1-.43-0.43V8.81a0.43,0.43,0,0,1,.43-0.43H131a0.43,0.43,0,0,1,.43.43v1.57h0Z" transform="translate(0.03 0)"/><path class="cls-6" d="M130.93,13.11a0.33,0.33,0,0,1-.33.33h-0.51a0.34,0.34,0,0,1-.34-0.33V10.84a0.34,0.34,0,0,1,.34-0.34h0.51a0.34,0.34,0,0,1,.33.34v2.27Z" transform="translate(0.03 0)"/><text x="0.03"/><path class="cls-6" d="M131,16.8a0.39,0.39,0,0,0,.26.09,0.41,0.41,0,0,0,.32-0.15,0.42,0.42,0,0,0-.06-0.59l-1-.82a0.41,0.41,0,0,0-.51,0l-1,.82a0.42,0.42,0,0,0-.06.59,0.41,0.41,0,0,0,.58.06l0.36-.29V21l-0.36-.29a0.41,0.41,0,1,0-.52.64l1,0.83a0.41,0.41,0,0,0,.51,0l1-.83a0.41,0.41,0,0,0,.06-0.58,0.41,0.41,0,0,0-.58-0.06l-0.36.29V16.51Z" transform="translate(0.03 0)"/><text class="cls-7" transform="translate(131.93 19.68)">m</text><text x="0.03"/><path class="cls-6" d="M132.88,29l-0.6-2.5a0.16,0.16,0,0,0-.14-0.11h-1a1.13,1.13,0,0,0,.26-0.73,1,1,0,0,0-1-1,1.05,1.05,0,0,0-1,1.06,1.1,1.1,0,0,0,.26.71h-0.95a0.17,0.17,0,0,0-.14.11L127.8,29a0.16,0.16,0,0,0,0,.13,0.14,0.14,0,0,0,.1.07h4.83a0.17,0.17,0,0,0,.1-0.08A0.21,0.21,0,0,0,132.88,29Zm-2.54-3.91a0.52,0.52,0,1,1-.51.52A0.51,0.51,0,0,1,130.34,25.09Z" transform="translate(0.03 0)"/><text class="cls-8" transform="translate(129.83 28.63)">T</text><text class="cls-9" transform="translate(8.3 11.97)">pts</text><text x="0.03"/><text x="0.03"/><line class="cls-10" x1="3.96" y1="116.17" x2="137.71" y2="116.17"/><line class="cls-11" x1="70.87" y1="99.61" x2="70.87" y2="132.73"/><text class="cls-12" transform="translate(83.41 108.06) scale(0.58 0.58)">%</text><text class="cls-12" transform="translate(83.41 126.38) scale(0.58 0.58)">%</text><text class="cls-12" transform="translate(55.78 108.06) scale(0.58 0.58)">%</text><text class="cls-12" transform="translate(54.66 126.38) scale(0.58 0.58)">% </text><ellipse class="cls-13" cx="70.87" cy="116.17" rx="9.27" ry="9.31"/><text x="0.03"/><polygon class="cls-14" points="129.63 105.23 129.63 106.94 129.63 110.98 130.64 110.98 130.64 107.13 130.64 105.23 129.63 105.23"/><polygon class="cls-15" points="129.23 105.6 130.24 105.6 130.24 107.5 132.55 107.92 132.55 103.47 130.8 103.47 130.8 101.66 128.67 101.66 128.67 103.47 126.92 103.47 126.92 106.89 129.23 107.31 129.23 105.6"/><polygon class="cls-1" points="131.28 107.55 128.96 107.13 128.96 110.98 127.95 110.98 127.95 106.94 125.64 106.52 125.64 110.98 123.54 110.98 123.54 113.51 133.37 113.51 133.37 110.98 131.28 110.98 131.28 107.55"/><polyline class="cls-16" points="123.15 131.11 123.15 127.54 133.12 127.54 133.12 130.32"/><polygon class="cls-17" points="132.18 130.05 133.12 131.67 134.05 130.05 132.18 130.05"/><polyline class="cls-16" points="8.3 109.71 8.3 99.61 17.98 99.61 17.98 106.13"/><polygon class="cls-17" points="16.86 105.8 17.98 107.74 19.1 105.8 16.86 105.8"/><path class="cls-1" d="M16.32,132.07v-8.22H14.49V122H12.27v1.89H10.45v8.22H8.26v2.63H18.5v-2.63H16.32Zm-3.46-6h1.05v6H12.86v-6Z" transform="translate(0.03 0)"/><g class="cls-18"><rect class="cls-1" x="8.3" y="127.02" width="10.24" height="12.73"/></g><polyline class="cls-16" points="8.3 130.82 8.3 120.14 11.58 120.14"/><polygon class="cls-17" points="11.25 121.26 13.19 120.14 11.25 119.02 11.25 121.26"/><path class="cls-1" d="M16.32,111.08v-8.22H14.49V101H12.27v1.89H10.45v8.22H8.26v2.63H18.5v-2.63H16.32Zm-3.46-6h1.05v6H12.86v-6Z" transform="translate(0.03 0)"/><g class="cls-19"><rect class="cls-1" x="8.3" y="106.03" width="10.24" height="12.73"/></g><path class="cls-1" d="M131.36,132.07v-8.22h-1.83V122h-2.22v1.89h-1.83v8.22h-2.18v2.63h10.24v-2.63h-2.18Zm-3.46-6H129v6H127.9v-6Z" transform="translate(0.03 0)"/><g class="cls-20"><rect class="cls-1" x="123.34" y="127.02" width="10.24" height="12.73"/></g><polygon class="cls-15" points="127.83 125.93 129.12 125.93 129.1 127.62 131.28 127.62 131.28 123.78 129.52 123.78 129.52 121.96 127.39 121.96 127.39 123.78 125.64 123.78 125.64 127.64 127.83 127.64 127.83 125.93"/><rect class="cls-2" x="129.79" y="9.6" width="1.18" height="1.22"/><rect class="cls-21" x="0.03" width="141.73" height="141.73"/></svg>