<svg id="Capa_1" data-name="Capa 1" xmlns="http://www.w3.org/2000/svg" xmlns:xlink="http://www.w3.org/1999/xlink" viewBox="0 0 142.36 144.77"><defs><style>.cls-1,.cls-14,.cls-5,.cls-6{fill:#ffd89f;}.cls-2{fill:#ffdcaa;}.cls-10,.cls-19,.cls-21,.cls-3{fill:#fbb034;}.cls-22,.cls-4{fill:#fff;}.cls-5{font-size:43px;}.cls-10,.cls-11,.cls-14,.cls-5,.cls-6,.cls-9{font-family:ITC Avant Garde Gothic Std;}.cls-10,.cls-5,.cls-6{font-weight:700;}.cls-6,.cls-7{font-size:30.62px;}.cls-7{font-family:Austin Cyr;font-style:italic;}.cls-11,.cls-8,.cls-9{fill:#ffd8a0;}.cls-9{font-size:3.28px;}.cls-10{font-size:2.2px;}.cls-11{font-size:3.77px;}.cls-12,.cls-13,.cls-16,.cls-18{fill:none;}.cls-12,.cls-13,.cls-16,.cls-18,.cls-19,.cls-21{stroke:#ffd89f;}.cls-12,.cls-13,.cls-16,.cls-19{stroke-linejoin:round;}.cls-13{stroke-linecap:round;}.cls-14{font-size:7.42px;}.cls-15{clip-path:url(#clip-path);}.cls-16{stroke-width:0.75px;}.cls-17{clip-path:url(#clip-path-2);}.cls-18,.cls-21{stroke-miterlimit:10;stroke-width:0.25px;}.cls-20{clip-path:url(#clip-path-3);}.cls-22{opacity:0.2;}</style><clipPath id="clip-path" transform="translate(0.63 3.04)"><path class="cls-1" d="M15.92,111v-7.77H14.19v-1.79h-2.1v1.79H10.36V111H8.3v2.49H18V111H15.92Zm-3.28-5.67h1V111h-1v-5.67Z"/></clipPath><clipPath id="clip-path-2" transform="translate(0.63 3.04)"><path class="cls-1" d="M16.35,132.11V123.9H14.52V122H12.31v1.89H10.48v8.21H8.3v2.63H18.53v-2.63H16.35Zm-3.46-6h1.05v6H12.89v-6Z"/></clipPath><clipPath id="clip-path-3" transform="translate(0.63 3.04)"><path class="cls-2" d="M131.39,131.68v-8.22h-1.83v-1.89h-2.22v1.89h-1.83v8.22h-2.18v2.63h10.24v-2.63h-2.18Zm-3.46-6H129v6h-1.05v-6Z"/></clipPath></defs><title>4d8s</title><rect class="cls-3" x="2.63" y="5.04" width="137.73" height="137.73"/><path class="cls-4" d="M137.73,4V137.73H4V4H137.73m4-4H0V141.73H141.73V0h0Z" transform="translate(0.63 3.04)"/><text class="cls-5" transform="translate(28.98 70.87)">4</text><text class="cls-6" transform="translate(55.46 70.87) scale(0.91 1)">d</text><text class="cls-5" transform="translate(74.84 70.87)">8<tspan class="cls-7" x="26.58" y="0">s</tspan></text><text x="0.63" y="3.04"/><circle class="cls-8" cx="131" cy="10.55" r="0.68"/><path class="cls-8" d="M131.5,10.38a0.43,0.43,0,0,1-.43.43h-1.39a0.43,0.43,0,0,1-.43-0.43V8.81a0.43,0.43,0,0,1,.43-0.43h1.39a0.43,0.43,0,0,1,.43.43v1.57h0Z" transform="translate(0.63 3.04)"/><path class="cls-8" d="M131,13.11a0.34,0.34,0,0,1-.33.33h-0.51a0.34,0.34,0,0,1-.34-0.33V10.84a0.34,0.34,0,0,1,.34-0.34h0.51a0.34,0.34,0,0,1,.33.34v2.27Z" transform="translate(0.63 3.04)"/><text x="0.63" y="3.04"/><path class="cls-8" d="M131,16.8a0.41,0.41,0,0,0,.58-0.06,0.42,0.42,0,0,0-.06-0.59l-1-.82a0.41,0.41,0,0,0-.52,0l-1,.82a0.42,0.42,0,0,0-.06.59,0.41,0.41,0,0,0,.58.06l0.36-.29V21l-0.36-.29a0.41,0.41,0,1,0-.52.64l1,0.83a0.41,0.41,0,0,0,.52,0l1-.83a0.41,0.41,0,0,0,.06-0.58,0.41,0.41,0,0,0-.58-0.06l-0.36.29V16.51Z" transform="translate(0.63 3.04)"/><text class="cls-9" transform="translate(132.55 22.71)">m</text><text x="0.63" y="3.04"/><path class="cls-8" d="M132.91,29l-0.6-2.5a0.16,0.16,0,0,0-.14-0.12h-1a1.13,1.13,0,0,0,.26-0.73,1,1,0,0,0-1-1,1.05,1.05,0,0,0-1,1.05,1.1,1.1,0,0,0,.26.71h-0.95a0.17,0.17,0,0,0-.14.11L127.84,29a0.16,0.16,0,0,0,0,.13,0.15,0.15,0,0,0,.1.07h4.83a0.17,0.17,0,0,0,.1-0.08A0.21,0.21,0,0,0,132.91,29Zm-2.54-3.91a0.51,0.51,0,1,1-.51.51A0.51,0.51,0,0,1,130.37,25.09Z" transform="translate(0.63 3.04)"/><text class="cls-10" transform="translate(130.46 31.66)">T</text><text class="cls-11" transform="translate(8.93 15.01)">pts</text><text x="0.63" y="3.04"/><text x="0.63" y="3.04"/><line class="cls-12" x1="4.62" y1="119.21" x2="138.35" y2="119.21"/><line class="cls-13" x1="71.49" y1="102.65" x2="71.49" y2="135.77"/><text class="cls-14" transform="translate(84.03 111.1) scale(0.58 0.58)">%</text><text class="cls-14" transform="translate(84.03 129.41) scale(0.58 0.58)">%</text><text class="cls-14" transform="translate(55.34 111.1) scale(0.58 0.58)">% </text><text class="cls-14" transform="translate(55.28 129.41) scale(0.58 0.58)">% </text><path class="cls-1" d="M15.92,111v-7.77H14.19v-1.79h-2.1v1.79H10.36V111H8.3v2.49H18V111H15.92Zm-3.28-5.67h1V111h-1v-5.67Z" transform="translate(0.63 3.04)"/><g class="cls-15"><rect class="cls-1" x="8.93" y="109.24" width="9.68" height="12.05"/></g><polyline class="cls-16" points="8.93 112.71 8.93 102.61 18.61 102.61 18.61 109.13"/><polygon class="cls-1" points="17.49 108.8 18.61 110.74 19.73 108.8 17.49 108.8"/><path class="cls-1" d="M16.35,132.11V123.9H14.52V122H12.31v1.89H10.48v8.21H8.3v2.63H18.53v-2.63H16.35Zm-3.46-6h1.05v6H12.89v-6Z" transform="translate(0.63 3.04)"/><g class="cls-17"><rect class="cls-1" x="8.92" y="130.1" width="10.24" height="12.73"/></g><polyline class="cls-16" points="8.92 133.89 8.92 123.22 12.2 123.22"/><polygon class="cls-1" points="11.88 124.34 13.82 123.22 11.88 122.1 11.88 124.34"/><polygon class="cls-18" points="129.85 108.64 130.87 108.64 130.87 110.53 133.18 110.96 133.18 106.5 131.43 106.5 131.43 104.69 129.3 104.69 129.3 106.5 127.54 106.5 127.54 109.92 129.85 110.35 129.85 108.64"/><polygon class="cls-1" points="131.9 110.59 129.59 110.16 129.59 114.02 128.58 114.02 128.58 109.98 126.27 109.55 126.27 114.02 124.17 114.02 124.17 116.54 134 116.54 134 114.02 131.9 114.02 131.9 110.59"/><polyline class="cls-16" points="123.92 134.14 123.92 130.58 133.89 130.58 133.89 133.35"/><polygon class="cls-1" points="132.95 133.08 133.89 134.7 134.82 133.08 132.95 133.08"/><ellipse class="cls-19" cx="71.54" cy="119.21" rx="9.27" ry="9.31"/><text x="0.63" y="3.04"/><path class="cls-2" d="M131.39,131.68v-8.22h-1.83v-1.89h-2.22v1.89h-1.83v8.22h-2.18v2.63h10.24v-2.63h-2.18Zm-3.46-6H129v6h-1.05v-6Z" transform="translate(0.63 3.04)"/><g class="cls-20"><rect class="cls-2" x="123.96" y="129.66" width="10.24" height="12.73"/></g><polygon class="cls-21" points="128.46 128.57 129.75 128.57 129.72 130.26 131.9 130.26 131.9 126.42 130.15 126.42 130.15 124.61 128.02 124.61 128.02 126.42 126.27 126.42 126.27 130.28 128.46 130.28 128.46 128.57"/><rect class="cls-3" x="130.41" y="12.63" width="1.18" height="1.22"/><rect class="cls-22" width="141.73" height="141.73"/></svg>