<svg id="Capa_1" data-name="Capa 1" xmlns="http://www.w3.org/2000/svg" xmlns:xlink="http://www.w3.org/1999/xlink" viewBox="0 0 142.42 144.77"><defs><style>.cls-1,.cls-13,.cls-5,.cls-6{fill:#ffd89f;}.cls-2{fill:#ffdcaa;}.cls-18,.cls-20,.cls-3,.cls-9{fill:#fbb034;}.cls-21,.cls-4{fill:#fff;}.cls-5{font-size:43px;}.cls-10,.cls-13,.cls-5,.cls-6,.cls-8,.cls-9{font-family:ITC Avant Garde Gothic Std;}.cls-5,.cls-6,.cls-9{font-weight:700;}.cls-6{font-size:30.62px;}.cls-10,.cls-7,.cls-8{fill:#ffd8a0;}.cls-8{font-size:3.28px;}.cls-9{font-size:2.2px;}.cls-10{font-size:3.77px;}.cls-11,.cls-12,.cls-15,.cls-17{fill:none;}.cls-11,.cls-12,.cls-15,.cls-17,.cls-18,.cls-20{stroke:#ffd89f;}.cls-11,.cls-12,.cls-15,.cls-18{stroke-linejoin:round;}.cls-12{stroke-linecap:round;}.cls-13{font-size:7.42px;}.cls-14{clip-path:url(#clip-path);}.cls-15{stroke-width:0.75px;}.cls-16{clip-path:url(#clip-path-2);}.cls-17,.cls-20{stroke-miterlimit:10;stroke-width:0.25px;}.cls-19{clip-path:url(#clip-path-3);}.cls-21{opacity:0.2;}</style><clipPath id="clip-path" transform="translate(0.68 3.04)"><path class="cls-1" d="M15.92,111v-7.77H14.19v-1.79h-2.1v1.79H10.36V111H8.3v2.49H18V111H15.92Zm-3.28-5.67h1V111h-1v-5.67Z"/></clipPath><clipPath id="clip-path-2" transform="translate(0.68 3.04)"><path class="cls-1" d="M16.35,132.11V123.9H14.52V122H12.31v1.89H10.48v8.21H8.3v2.63H18.53v-2.63H16.35Zm-3.46-6h1.05v6H12.89v-6Z"/></clipPath><clipPath id="clip-path-3" transform="translate(0.68 3.04)"><path class="cls-2" d="M131.39,131.68v-8.22h-1.83v-1.89h-2.22v1.89h-1.83v8.22h-2.18v2.63h10.24v-2.63h-2.18Zm-3.46-6H129v6h-1.05v-6Z"/></clipPath></defs><title>6d8</title><rect class="cls-3" x="2.68" y="5.04" width="137.73" height="137.73"/><path class="cls-4" d="M137.73,4V137.73H4V4H137.73m4-4H0V141.73H141.73V0h0Z" transform="translate(0.68 3.04)"/><text class="cls-5" transform="translate(34.8 70.87)">6</text><text class="cls-6" transform="translate(61.28 70.87) scale(0.91 1)">d</text><text class="cls-5" transform="translate(80.66 70.87)">8</text><text x="0.68" y="3.04"/><circle class="cls-7" cx="131.06" cy="10.55" r="0.68"/><path class="cls-7" d="M131.5,10.38a0.43,0.43,0,0,1-.43.43h-1.39a0.43,0.43,0,0,1-.43-0.43V8.81a0.43,0.43,0,0,1,.43-0.43h1.39a0.43,0.43,0,0,1,.43.43v1.57h0Z" transform="translate(0.68 3.04)"/><path class="cls-7" d="M131,13.11a0.34,0.34,0,0,1-.33.33h-0.51a0.34,0.34,0,0,1-.34-0.33V10.84a0.34,0.34,0,0,1,.34-0.34h0.51a0.34,0.34,0,0,1,.33.34v2.27Z" transform="translate(0.68 3.04)"/><text x="0.68" y="3.04"/><path class="cls-7" d="M131,16.8a0.41,0.41,0,0,0,.58-0.06,0.42,0.42,0,0,0-.06-0.59l-1-.82a0.41,0.41,0,0,0-.52,0l-1,.82a0.42,0.42,0,0,0-.06.59,0.41,0.41,0,0,0,.58.06l0.36-.29V21l-0.36-.29a0.41,0.41,0,1,0-.52.64l1,0.83a0.41,0.41,0,0,0,.52,0l1-.83a0.41,0.41,0,0,0,.06-0.58,0.41,0.41,0,0,0-.58-0.06l-0.36.29V16.51Z" transform="translate(0.68 3.04)"/><text class="cls-8" transform="translate(132.61 22.71)">m</text><text x="0.68" y="3.04"/><path class="cls-7" d="M132.91,29l-0.6-2.5a0.16,0.16,0,0,0-.14-0.12h-1a1.13,1.13,0,0,0,.26-0.73,1,1,0,0,0-1-1,1.05,1.05,0,0,0-1,1.05,1.1,1.1,0,0,0,.26.71h-0.95a0.17,0.17,0,0,0-.14.11L127.84,29a0.16,0.16,0,0,0,0,.13,0.15,0.15,0,0,0,.1.07h4.83a0.17,0.17,0,0,0,.1-0.08A0.21,0.21,0,0,0,132.91,29Zm-2.54-3.91a0.51,0.51,0,1,1-.51.51A0.51,0.51,0,0,1,130.37,25.09Z" transform="translate(0.68 3.04)"/><text class="cls-9" transform="translate(130.51 31.66)">T</text><text class="cls-10" transform="translate(8.98 15.01)">pts</text><text x="0.68" y="3.04"/><line class="cls-11" x1="4.68" y1="119.21" x2="138.41" y2="119.21"/><line class="cls-12" x1="71.55" y1="102.65" x2="71.55" y2="135.77"/><text class="cls-13" transform="translate(84.09 111.1) scale(0.58 0.58)">%</text><text class="cls-13" transform="translate(84.09 129.41) scale(0.58 0.58)">%</text><text class="cls-13" transform="translate(55.39 111.1) scale(0.58 0.58)">% </text><text class="cls-13" transform="translate(55.34 129.41) scale(0.58 0.58)">% </text><path class="cls-1" d="M15.92,111v-7.77H14.19v-1.79h-2.1v1.79H10.36V111H8.3v2.49H18V111H15.92Zm-3.28-5.67h1V111h-1v-5.67Z" transform="translate(0.68 3.04)"/><g class="cls-14"><rect class="cls-1" x="8.98" y="109.24" width="9.68" height="12.05"/></g><polyline class="cls-15" points="8.98 112.71 8.98 102.61 18.66 102.61 18.66 109.13"/><polygon class="cls-1" points="17.54 108.8 18.66 110.74 19.79 108.8 17.54 108.8"/><path class="cls-1" d="M16.35,132.11V123.9H14.52V122H12.31v1.89H10.48v8.21H8.3v2.63H18.53v-2.63H16.35Zm-3.46-6h1.05v6H12.89v-6Z" transform="translate(0.68 3.04)"/><g class="cls-16"><rect class="cls-1" x="8.98" y="130.1" width="10.24" height="12.73"/></g><polyline class="cls-15" points="8.98 133.89 8.98 123.22 12.26 123.22"/><polygon class="cls-1" points="11.93 124.34 13.87 123.22 11.93 122.1 11.93 124.34"/><polygon class="cls-17" points="129.91 108.64 130.92 108.64 130.92 110.53 133.23 110.96 133.23 106.5 131.48 106.5 131.48 104.69 129.35 104.69 129.35 106.5 127.6 106.5 127.6 109.92 129.91 110.35 129.91 108.64"/><polygon class="cls-1" points="131.96 110.59 129.64 110.16 129.64 114.02 128.63 114.02 128.63 109.98 126.32 109.55 126.32 114.02 124.22 114.02 124.22 116.54 134.05 116.54 134.05 114.02 131.96 114.02 131.96 110.59"/><polyline class="cls-15" points="123.98 134.14 123.98 130.58 133.94 130.58 133.94 133.35"/><polygon class="cls-1" points="133.01 133.08 133.94 134.7 134.88 133.08 133.01 133.08"/><ellipse class="cls-18" cx="71.59" cy="119.21" rx="9.27" ry="9.31"/><text x="0.68" y="3.04"/><path class="cls-2" d="M131.39,131.68v-8.22h-1.83v-1.89h-2.22v1.89h-1.83v8.22h-2.18v2.63h10.24v-2.63h-2.18Zm-3.46-6H129v6h-1.05v-6Z" transform="translate(0.68 3.04)"/><g class="cls-19"><rect class="cls-2" x="124.02" y="129.66" width="10.24" height="12.73"/></g><polygon class="cls-20" points="128.51 128.57 129.8 128.57 129.78 130.26 131.96 130.26 131.96 126.42 130.2 126.42 130.2 124.61 128.07 124.61 128.07 126.42 126.32 126.42 126.32 130.28 128.51 130.28 128.51 128.57"/><rect class="cls-3" x="130.47" y="12.63" width="1.18" height="1.22"/><rect class="cls-21" width="141.73" height="141.73"/></svg>