<svg id="Capa_1" data-name="Capa 1" xmlns="http://www.w3.org/2000/svg" xmlns:xlink="http://www.w3.org/1999/xlink" viewBox="0 0 142.88 144.81"><defs><style>.cls-1,.cls-13,.cls-4,.cls-5{fill:#87bed3;}.cls-2,.cls-21,.cls-9{fill:#008eb0;}.cls-22,.cls-3{fill:#fff;}.cls-4{font-size:43px;}.cls-10,.cls-13,.cls-14,.cls-4,.cls-5,.cls-8,.cls-9{font-family:ITC Avant Garde Gothic Std;}.cls-4,.cls-5,.cls-9{font-weight:700;}.cls-5,.cls-6{font-size:30.62px;}.cls-6{font-family:Austin Cyr;font-style:italic;}.cls-10,.cls-7,.cls-8{fill:#8abfd4;}.cls-8{font-size:3.28px;}.cls-9{font-size:2.2px;}.cls-10{font-size:3.77px;}.cls-11,.cls-12,.cls-15,.cls-16,.cls-17{fill:none;}.cls-11,.cls-12,.cls-16,.cls-17{stroke:#87bed3;stroke-linejoin:round;}.cls-12{stroke-linecap:round;}.cls-13,.cls-14{font-size:7.42px;}.cls-14{fill:#87bdd2;}.cls-16,.cls-21{stroke-width:0.25px;}.cls-17{stroke-width:0.75px;}.cls-18{clip-path:url(#clip-path);}.cls-19{clip-path:url(#clip-path-2);}.cls-20{clip-path:url(#clip-path-3);}.cls-21{stroke:#87bdd2;stroke-miterlimit:10;}.cls-22{opacity:0.2;}</style><clipPath id="clip-path" transform="translate(1.03 3.07)"><path class="cls-1" d="M131.21,131.77v-8h-1.78v-1.84h-2.16v1.84H125.5v8h-2.12v2.56h10v-2.56h-2.13Zm-3.37-5.84h1v5.84h-1v-5.84Z"/></clipPath><clipPath id="clip-path-2" transform="translate(1.03 3.07)"><path class="cls-1" d="M16.07,111v-7.77H14.34v-1.79h-2.1v1.79H10.51V111H8.45v2.49h9.68V111H16.07Zm-3.28-5.67h1V111h-1v-5.67Z"/></clipPath><clipPath id="clip-path-3" transform="translate(1.03 3.07)"><path class="cls-1" d="M16.5,132.07v-8.22H14.68V122H12.46v1.89H10.63v8.22H8.45v2.63H18.69v-2.63H16.5Zm-3.46-6h1.05v6H13v-6Z"/></clipPath></defs><title>7d6a</title><rect class="cls-2" x="3.15" y="5.07" width="137.73" height="137.73"/><path class="cls-3" d="M137.85,4V137.73H4.12V4H137.85m4-4H0.12V141.73H141.85V0h0Z" transform="translate(1.03 3.07)"/><text class="cls-4" transform="translate(27.76 70.91)">7</text><text class="cls-5" transform="translate(54.24 70.91) scale(0.91 1)">d</text><text class="cls-4" transform="translate(73.62 70.91)">6<tspan class="cls-6" x="26.58" y="0">a</tspan></text><text x="1.03" y="3.07"/><circle class="cls-7" cx="131.52" cy="10.59" r="0.68"/><path class="cls-7" d="M131.62,10.38a0.43,0.43,0,0,1-.43.43h-1.39a0.43,0.43,0,0,1-.43-0.43V8.81a0.43,0.43,0,0,1,.43-0.43h1.39a0.43,0.43,0,0,1,.43.43v1.57h0Z" transform="translate(1.03 3.07)"/><path class="cls-7" d="M131.08,13.11a0.33,0.33,0,0,1-.33.33h-0.51a0.34,0.34,0,0,1-.34-0.33V10.84a0.34,0.34,0,0,1,.34-0.34h0.51a0.33,0.33,0,0,1,.33.34v2.27Z" transform="translate(1.03 3.07)"/><text x="1.03" y="3.07"/><path class="cls-7" d="M131.13,16.8a0.39,0.39,0,0,0,.26.09,0.41,0.41,0,0,0,.32-0.15,0.42,0.42,0,0,0-.06-0.59l-1-.82a0.41,0.41,0,0,0-.51,0l-1,.82a0.42,0.42,0,0,0-.06.59,0.41,0.41,0,0,0,.58.06l0.36-.29V21l-0.36-.29a0.41,0.41,0,1,0-.52.64l1,0.83a0.43,0.43,0,0,0,.26.09,0.43,0.43,0,0,0,.26-0.09l1-.83a0.41,0.41,0,1,0-.52-0.64l-0.36.29V16.51Z" transform="translate(1.03 3.07)"/><text class="cls-8" transform="translate(133.08 22.75)">m</text><text x="1.03" y="3.07"/><path class="cls-7" d="M133,29l-0.6-2.5a0.16,0.16,0,0,0-.14-0.12h-1a1.13,1.13,0,0,0,.26-0.73,1,1,0,0,0-1-1,1.05,1.05,0,0,0-1,1.06,1.09,1.09,0,0,0,.26.71h-0.95a0.17,0.17,0,0,0-.14.11L128,29a0.16,0.16,0,0,0,0,.13,0.15,0.15,0,0,0,.1.07h4.83a0.17,0.17,0,0,0,.1-0.08A0.21,0.21,0,0,0,133,29Zm-2.54-3.91a0.52,0.52,0,1,1-.51.51A0.51,0.51,0,0,1,130.49,25.09Z" transform="translate(1.03 3.07)"/><text class="cls-9" transform="translate(130.98 31.7)">T</text><text class="cls-10" transform="translate(9.45 15.05)">Sense puntuació</text><text x="1.03" y="3.07"/><line class="cls-11" x1="5.15" y1="119.24" x2="138.87" y2="119.24"/><line class="cls-12" x1="72.02" y1="102.68" x2="72.02" y2="135.8"/><text class="cls-13" transform="translate(84.56 111.13) scale(0.58 0.58)">%</text><text class="cls-14" transform="translate(84.56 129.45) scale(0.58 0.58)">%</text><text class="cls-13" transform="translate(55.86 111.13) scale(0.58 0.58)">% </text><text class="cls-13" transform="translate(55.81 129.45) scale(0.58 0.58)">% </text><polygon class="cls-15" points="130.78 108.3 130.78 110.01 130.78 114.06 131.79 114.06 131.79 110.2 131.79 108.3 130.78 108.3"/><polygon class="cls-16" points="130.41 108.67 131.43 108.67 131.43 110.57 133.74 111 133.74 106.54 131.98 106.54 131.98 104.73 129.85 104.73 129.85 106.54 128.1 106.54 128.1 109.96 130.41 110.39 130.41 108.67"/><polygon class="cls-1" points="132.46 110.63 130.15 110.2 130.15 114.06 129.14 114.06 129.14 110.01 126.82 109.59 126.82 114.06 124.73 114.06 124.73 116.58 134.55 116.58 134.55 114.06 132.46 114.06 132.46 110.63"/><polyline class="cls-17" points="124.33 134.18 124.33 130.61 134.3 130.61 134.3 133.39"/><polygon class="cls-1" points="133.37 133.12 134.3 134.74 135.24 133.12 133.37 133.12"/><path class="cls-1" d="M131.21,131.77v-8h-1.78v-1.84h-2.16v1.84H125.5v8h-2.12v2.56h10v-2.56h-2.13Zm-3.37-5.84h1v5.84h-1v-5.84Z" transform="translate(1.03 3.07)"/><g class="cls-18"><polygon class="cls-1" points="134.37 142.32 124.41 142.32 124.41 129.92 134.37 129.94 134.37 142.32"/></g><path class="cls-1" d="M16.07,111v-7.77H14.34v-1.79h-2.1v1.79H10.51V111H8.45v2.49h9.68V111H16.07Zm-3.28-5.67h1V111h-1v-5.67Z" transform="translate(1.03 3.07)"/><g class="cls-19"><rect class="cls-1" x="9.48" y="109.31" width="9.68" height="12.05"/></g><polyline class="cls-17" points="9.48 112.78 9.48 102.68 19.17 102.68 19.17 109.2"/><polygon class="cls-1" points="18.05 108.87 19.17 110.82 20.29 108.87 18.05 108.87"/><path class="cls-1" d="M16.5,132.07v-8.22H14.68V122H12.46v1.89H10.63v8.22H8.45v2.63H18.69v-2.63H16.5Zm-3.46-6h1.05v6H13v-6Z" transform="translate(1.03 3.07)"/><g class="cls-20"><rect class="cls-1" x="9.48" y="130.09" width="10.24" height="12.73"/></g><polyline class="cls-17" points="9.48 133.89 9.48 123.21 12.76 123.21"/><polygon class="cls-1" points="12.43 124.33 14.38 123.21 12.43 122.09 12.43 124.33"/><polygon class="cls-21" points="128.69 128.95 129.98 128.95 129.96 130.64 132.14 130.64 132.14 126.8 130.38 126.8 130.38 124.98 128.25 124.98 128.25 126.8 126.5 126.8 126.5 130.66 128.69 130.66 128.69 128.95"/><rect class="cls-2" x="130.94" y="12.67" width="1.18" height="1.22"/><rect class="cls-22" width="141.73" height="141.73"/></svg>