<svg id="Capa_1" data-name="Capa 1" xmlns="http://www.w3.org/2000/svg" xmlns:xlink="http://www.w3.org/1999/xlink" viewBox="0 0 142.26 144.79"><defs><style>.cls-1,.cls-13,.cls-4,.cls-5{fill:#b1dcbd;}.cls-14,.cls-2,.cls-9{fill:#4fbb7d;}.cls-20,.cls-3{fill:#fff;}.cls-4{font-size:43px;}.cls-10,.cls-13,.cls-4,.cls-5,.cls-8,.cls-9{font-family:ITC Avant Garde Gothic Std;}.cls-4,.cls-5,.cls-9{font-weight:700;}.cls-5{font-size:30.62px;}.cls-6{font-size:30.62px;font-family:Austin Cyr;font-style:italic;}.cls-10,.cls-7,.cls-8{fill:#b3dcbe;}.cls-8{font-size:3.28px;}.cls-9{font-size:2.2px;}.cls-10{font-size:3.77px;}.cls-11,.cls-12,.cls-16,.cls-18{fill:none;}.cls-11,.cls-12,.cls-14,.cls-16,.cls-18{stroke:#b1dcbd;stroke-linejoin:round;}.cls-12,.cls-14{stroke-linecap:round;}.cls-13{font-size:6px;}.cls-15{clip-path:url(#clip-path);}.cls-16{stroke-width:0.75px;}.cls-17{clip-path:url(#clip-path-2);}.cls-18{stroke-width:0.25px;}.cls-19{clip-path:url(#clip-path-3);}.cls-20{opacity:0.2;}</style><clipPath id="clip-path" transform="translate(0.53 3.05)"><path class="cls-1" d="M15.39,111v-7.77H13.66v-1.79h-2.1v1.79H9.83V111H7.77v2.49h9.68V111H15.39Zm-3.28-5.67h1V111h-1v-5.67Z"/></clipPath><clipPath id="clip-path-2" transform="translate(0.53 3.05)"><path class="cls-1" d="M15.82,132V123.8H14v-1.89H11.78v1.89H10V132H7.77v2.63H18V132H15.82Zm-3.46-6h1.05v6H12.36v-6Z"/></clipPath><clipPath id="clip-path-3" transform="translate(0.53 3.05)"><path class="cls-1" d="M130.6,131.89v-8h-1.78v-1.84h-2.16v1.84h-1.78v8h-2.12v2.56h10v-2.56H130.6Zm-3.37-5.84h1v5.84h-1v-5.84Z"/></clipPath></defs><title>7d7aa</title><rect class="cls-2" x="2" y="5.05" width="137.73" height="137.73"/><path class="cls-3" d="M137.2,4V137.73H3.47V4H137.2m4-4H-0.53V141.73H141.2V0h0Z" transform="translate(0.53 3.05)"/><text class="cls-4" transform="translate(18.52 73.92)">7</text><text class="cls-5" transform="translate(45 73.92) scale(0.91 1)">d</text><text class="cls-4" transform="translate(64.38 73.92)">7<tspan class="cls-6" x="26.58" y="0">aa</tspan></text><text x="0.53" y="3.05"/><circle class="cls-7" cx="130.37" cy="10.57" r="0.68"/><path class="cls-7" d="M131,10.38a0.43,0.43,0,0,1-.43.43h-1.39a0.43,0.43,0,0,1-.43-0.43V8.81a0.43,0.43,0,0,1,.43-0.43h1.39a0.43,0.43,0,0,1,.43.43v1.57h0Z" transform="translate(0.53 3.05)"/><path class="cls-7" d="M130.43,13.11a0.33,0.33,0,0,1-.33.33h-0.51a0.34,0.34,0,0,1-.34-0.33V10.84a0.34,0.34,0,0,1,.34-0.34h0.51a0.34,0.34,0,0,1,.33.34v2.27Z" transform="translate(0.53 3.05)"/><text x="0.53" y="3.05"/><path class="cls-7" d="M130.48,16.8a0.39,0.39,0,0,0,.26.09,0.41,0.41,0,0,0,.32-0.15,0.42,0.42,0,0,0-.06-0.59l-1-.82a0.41,0.41,0,0,0-.51,0l-1,.82a0.42,0.42,0,0,0-.06.59,0.41,0.41,0,0,0,.58.06l0.36-.29V21l-0.36-.29a0.41,0.41,0,1,0-.52.64l1,0.83a0.41,0.41,0,0,0,.51,0l1-.83a0.41,0.41,0,0,0,.06-0.58,0.41,0.41,0,0,0-.58-0.06l-0.36.29V16.51Z" transform="translate(0.53 3.05)"/><text class="cls-8" transform="translate(131.93 22.73)">m</text><text x="0.53" y="3.05"/><path class="cls-7" d="M132.38,29l-0.6-2.5a0.16,0.16,0,0,0-.14-0.11h-1a1.13,1.13,0,0,0,.26-0.73,1,1,0,0,0-1-1,1.05,1.05,0,0,0-1,1.06,1.1,1.1,0,0,0,.26.71h-0.95a0.17,0.17,0,0,0-.14.11L127.31,29a0.16,0.16,0,0,0,0,.13,0.14,0.14,0,0,0,.1.07h4.83a0.17,0.17,0,0,0,.1-0.08A0.21,0.21,0,0,0,132.38,29Zm-2.54-3.91a0.52,0.52,0,1,1-.51.52A0.51,0.51,0,0,1,129.84,25.09Z" transform="translate(0.53 3.05)"/><text class="cls-9" transform="translate(129.83 31.68)">T</text><text class="cls-10" transform="translate(8.3 15.03)">pts</text><text x="0.53" y="3.05"/><line class="cls-11" x1="4" y1="119.22" x2="137.83" y2="119.22"/><line class="cls-12" x1="70.87" y1="102.66" x2="70.87" y2="135.79"/><text class="cls-13" transform="translate(83.41 111.59) scale(0.58 0.58)">%</text><text class="cls-13" transform="translate(83.41 129.9) scale(0.58 0.58)">%</text><text class="cls-13" transform="translate(55.54 111.59) scale(0.58 0.58)">% </text><text class="cls-13" transform="translate(55.49 129.9) scale(0.58 0.58)">% </text><ellipse class="cls-14" cx="70.87" cy="119.63" rx="9.27" ry="9.31"/><text x="0.53" y="3.05"/><path class="cls-1" d="M15.39,111v-7.77H13.66v-1.79h-2.1v1.79H9.83V111H7.77v2.49h9.68V111H15.39Zm-3.28-5.67h1V111h-1v-5.67Z" transform="translate(0.53 3.05)"/><g class="cls-15"><rect class="cls-1" x="8.3" y="109.29" width="9.68" height="12.05"/></g><polyline class="cls-16" points="8.3 112.76 8.3 102.66 17.98 102.66 17.98 109.18"/><polygon class="cls-1" points="16.86 108.85 17.98 110.8 19.1 108.85 16.86 108.85"/><path class="cls-1" d="M15.82,132V123.8H14v-1.89H11.78v1.89H10V132H7.77v2.63H18V132H15.82Zm-3.46-6h1.05v6H12.36v-6Z" transform="translate(0.53 3.05)"/><g class="cls-17"><rect class="cls-1" x="8.3" y="130.02" width="10.24" height="12.73"/></g><polyline class="cls-16" points="8.3 133.81 8.3 123.14 11.58 123.14"/><polygon class="cls-1" points="11.25 124.26 13.19 123.14 11.25 122.02 11.25 124.26"/><polygon class="cls-18" points="129.23 108.66 130.24 108.66 130.24 110.55 132.55 110.98 132.55 106.52 130.8 106.52 130.8 104.71 128.67 104.71 128.67 106.52 126.92 106.52 126.92 109.94 129.23 110.37 129.23 108.66"/><polygon class="cls-1" points="131.28 110.61 128.96 110.18 128.96 114.04 127.95 114.04 127.95 109.99 125.64 109.57 125.64 114.04 123.54 114.04 123.54 116.56 133.37 116.56 133.37 114.04 131.28 114.04 131.28 110.61"/><polyline class="cls-16" points="123.22 134.29 123.22 130.72 133.19 130.72 133.19 133.5"/><polygon class="cls-1" points="132.26 133.23 133.19 134.85 134.13 133.23 132.26 133.23"/><path class="cls-1" d="M130.6,131.89v-8h-1.78v-1.84h-2.16v1.84h-1.78v8h-2.12v2.56h10v-2.56H130.6Zm-3.37-5.84h1v5.84h-1v-5.84Z" transform="translate(0.53 3.05)"/><g class="cls-19"><polygon class="cls-1" points="133.26 142.43 123.29 142.43 123.29 130.03 133.26 130.04 133.26 142.43"/></g><rect class="cls-2" x="129.78" y="12.65" width="1.18" height="1.22"/><rect class="cls-20" x="0.53" width="141.73" height="141.73"/></svg>