<svg id="Capa_1" data-name="Capa 1" xmlns="http://www.w3.org/2000/svg" xmlns:xlink="http://www.w3.org/1999/xlink" viewBox="0 0 141.73 141.73"><defs><style>.cls-1,.cls-14,.cls-15,.cls-21,.cls-22{fill:none;}.cls-1,.cls-22,.cls-24{stroke:#fff;}.cls-1,.cls-24{stroke-miterlimit:10;stroke-width:0.25px;}.cls-11,.cls-16,.cls-18,.cls-2,.cls-20,.cls-24,.cls-4,.cls-5,.cls-7{fill:#fff;}.cls-10,.cls-19,.cls-3{fill:#f15e4d;}.cls-4{font-size:43px;}.cls-10,.cls-11,.cls-16,.cls-18,.cls-20,.cls-4,.cls-5,.cls-7,.cls-9{font-family:ITC Avant Garde Gothic Std;}.cls-10,.cls-13,.cls-17,.cls-18,.cls-20,.cls-4,.cls-5{font-weight:700;}.cls-5,.cls-6{font-size:30.62px;}.cls-13,.cls-6{font-family:Austin Cyr;font-style:italic;}.cls-7{font-size:6.79px;}.cls-12,.cls-8,.cls-9{fill:#f9b39f;}.cls-9{font-size:3.28px;}.cls-10{font-size:2.2px;}.cls-11{font-size:7.25px;}.cls-12{font-size:3.77px;}.cls-13{font-size:8.23px;fill:#f9ac96;}.cls-14,.cls-15,.cls-19{stroke:#f9b29e;}.cls-14,.cls-15,.cls-19,.cls-22{stroke-linejoin:round;}.cls-15,.cls-19,.cls-22{stroke-linecap:round;}.cls-16,.cls-18{font-size:7.42px;}.cls-20{font-size:8.4px;}.cls-22{stroke-width:0.75px;}.cls-23{clip-path:url(#clip-path);}.cls-25{clip-path:url(#clip-path-2);}.cls-26{clip-path:url(#clip-path-3);}</style><clipPath id="clip-path" transform="translate(0 0)"><path class="cls-1" d="M131.06,131.77v-8h-1.78v-1.84h-2.16v1.84h-1.78v8h-2.12v2.56h10v-2.56h-2.13Zm-3.37-5.84h1v5.84h-1v-5.84Z"/></clipPath><clipPath id="clip-path-2" transform="translate(0 0)"><path class="cls-2" d="M15.92,111v-7.77H14.19v-1.79h-2.1v1.79H10.36V111H8.3v2.49H18V111H15.92Zm-3.28-5.67h1V111h-1v-5.67Z"/></clipPath><clipPath id="clip-path-3" transform="translate(0 0)"><path class="cls-2" d="M16.35,132.07v-8.22H14.52V122H12.31v1.89H10.48v8.22H8.3v2.63H18.53v-2.63H16.35Zm-3.46-6h1.05v6H12.89v-6Z"/></clipPath></defs><title>5d9f</title><rect class="cls-3" x="2" y="2" width="137.73" height="137.73"/><path class="cls-2" d="M137.73,4V137.73H4V4H137.73m4-4H0V141.73H141.73V0h0Z" transform="translate(0 0)"/><text class="cls-4" transform="translate(29.37 67.83)">5</text><text class="cls-5" transform="translate(55.85 67.83) scale(0.91 1)">d</text><text class="cls-4" transform="translate(75.23 67.83)">9<tspan class="cls-6" x="26.58" y="0">f</tspan></text><text class="cls-7" transform="translate(114.28 12.66)">498</text><circle class="cls-8" cx="130.37" cy="7.51" r="0.68"/><path class="cls-8" d="M131.5,10.38a0.43,0.43,0,0,1-.43.43h-1.39a0.43,0.43,0,0,1-.43-0.43V8.81a0.43,0.43,0,0,1,.43-0.43h1.39a0.43,0.43,0,0,1,.43.43v1.57h0Z" transform="translate(0 0)"/><path class="cls-8" d="M131,13.11a0.33,0.33,0,0,1-.33.33h-0.51a0.34,0.34,0,0,1-.33-0.33V10.84a0.34,0.34,0,0,1,.33-0.34h0.51a0.34,0.34,0,0,1,.33.34v2.27Z" transform="translate(0 0)"/><text class="cls-7" transform="translate(117.02 21.07)">9<tspan x="3.64" y="0">,3</tspan></text><path class="cls-8" d="M131,16.8a0.4,0.4,0,0,0,.26.09,0.41,0.41,0,0,0,.32-0.15,0.42,0.42,0,0,0-.06-0.59l-1-.82a0.41,0.41,0,0,0-.51,0l-1,.82a0.42,0.42,0,0,0-.06.59,0.41,0.41,0,0,0,.58.06l0.36-.29V21l-0.36-.29a0.41,0.41,0,1,0-.52.64l1,0.83a0.41,0.41,0,0,0,.51,0l1-.83a0.41,0.41,0,0,0,.06-0.58,0.41,0.41,0,0,0-.58-0.06l-0.36.29V16.51Z" transform="translate(0 0)"/><text class="cls-9" transform="translate(131.93 19.67)">m</text><text class="cls-7" transform="translate(113.79 29.48)">3<tspan x="3.91" y="0">7</tspan><tspan x="6.87" y="0">,3</tspan></text><path class="cls-8" d="M132.91,29l-0.6-2.5a0.16,0.16,0,0,0-.14-0.11h-1a1.13,1.13,0,0,0,.26-0.73,1,1,0,0,0-1-1,1.05,1.05,0,0,0-1,1.06,1.1,1.1,0,0,0,.26.71h-0.95a0.17,0.17,0,0,0-.14.11L127.84,29a0.16,0.16,0,0,0,0,.13,0.14,0.14,0,0,0,.1.07h4.83a0.17,0.17,0,0,0,.1-0.08A0.21,0.21,0,0,0,132.91,29Zm-2.54-3.91a0.52,0.52,0,1,1-.51.52A0.51,0.51,0,0,1,130.37,25.09Z" transform="translate(0 0)"/><text class="cls-10" transform="translate(129.83 28.62)">T</text><text class="cls-11" transform="translate(8.3 12.91)">1515 <tspan class="cls-12" x="19.65" y="-0.94">car</tspan><tspan class="cls-12" x="26.01" y="-0.94">r</tspan><tspan class="cls-12" x="27.23" y="-0.94">egat</tspan></text><text class="cls-11" transform="translate(8.3 20.88)">1740 <tspan class="cls-12" x="19.65" y="-0.94">descar</tspan><tspan class="cls-12" x="32.84" y="-0.94">r</tspan><tspan class="cls-12" x="34.06" y="-0.94">egat</tspan></text><text class="cls-13" transform="translate(36.48 82.64)">ci<tspan x="6.32" y="0">n</tspan><tspan x="11.08" y="0">c </tspan><tspan x="16.26" y="0">d</tspan><tspan x="20.62" y="0">e </tspan><tspan x="25.74" y="0">n</tspan><tspan x="30.49" y="0">ou </tspan><tspan x="40.76" y="0">a</tspan><tspan x="45.17" y="0">m</tspan><tspan x="52.15" y="0">b </tspan><tspan x="57.8" y="0">f</tspan><tspan x="60.16" y="0">o</tspan><tspan x="64.05" y="0">l</tspan><tspan x="66.5" y="0">r</tspan><tspan x="70.15" y="0">e</tspan><tspan x="9.56" y="7.99">“</tspan><tspan x="12.14" y="7.99">s</tspan><tspan x="15.3" y="7.99">upe</tspan><tspan x="28.37" y="7.99">r</tspan><tspan x="32.02" y="7.99">c</tspan><tspan x="35.64" y="7.99">a</tspan><tspan x="40.05" y="7.99">t</tspan><tspan x="42.61" y="7.99">e</tspan><tspan x="46.17" y="7.99">d</tspan><tspan x="50.57" y="7.99">r</tspan><tspan x="54.17" y="7.99">a</tspan><tspan x="58.54" y="7.99">l</tspan><tspan x="61.03" y="7.99">”</tspan></text><line class="cls-14" x1="3.96" y1="116.17" x2="137.71" y2="116.17"/><line class="cls-15" x1="70.87" y1="99.61" x2="70.87" y2="132.73"/><text class="cls-16" transform="translate(83.41 110.53)"><tspan class="cls-17">47 </tspan><tspan x="10.57" y="0">3</tspan><tspan x="14.55" y="0">1</tspan></text><text class="cls-16" transform="translate(101.42 108.06) scale(0.58 0.58)">%</text><text class="cls-16" transform="translate(83.41 128.85)"><tspan class="cls-17">13 </tspan><tspan x="10.57" y="0">9</tspan></text><text class="cls-16" transform="translate(97.9 126.38) scale(0.58 0.58)">%</text><text class="cls-16" transform="translate(38.11 110.53)">34</text><text class="cls-16" transform="translate(46.04 108.06) scale(0.58 0.58)">% </text><text class="cls-18" transform="translate(50.23 110.53)">51</text><text class="cls-16" transform="translate(38.06 128.85)">26</text><text class="cls-16" transform="translate(45.99 126.38) scale(0.58 0.58)">% </text><text class="cls-18" transform="translate(50.18 128.85)">40</text><ellipse class="cls-19" cx="70.87" cy="116.17" rx="9.27" ry="9.31"/><text class="cls-20" transform="translate(63.74 119.23)">1<tspan x="4.35" y="0">51</tspan></text><polygon class="cls-21" points="129.63 105.23 129.63 106.94 129.63 110.98 130.64 110.98 130.64 107.13 130.64 105.23 129.63 105.23"/><polygon class="cls-1" points="129.23 105.6 130.24 105.6 130.24 107.5 132.55 107.92 132.55 103.47 130.8 103.47 130.8 101.65 128.67 101.65 128.67 103.47 126.92 103.47 126.92 106.89 129.23 107.31 129.23 105.6"/><polygon class="cls-2" points="131.28 107.55 128.96 107.13 128.96 110.98 127.95 110.98 127.95 106.94 125.64 106.52 125.64 110.98 123.54 110.98 123.54 113.5 133.37 113.5 133.37 110.98 131.28 110.98 131.28 107.55"/><polyline class="cls-22" points="123.15 131.1 123.15 127.54 133.12 127.54 133.12 130.32"/><polygon class="cls-2" points="132.18 130.05 133.12 131.66 134.05 130.05 132.18 130.05"/><g class="cls-23"><polygon class="cls-24" points="133.19 139.25 123.22 139.25 123.22 126.85 133.19 126.86 133.19 139.25"/></g><path class="cls-1" d="M131.06,131.77v-8h-1.78v-1.84h-2.16v1.84h-1.78v8h-2.12v2.56h10v-2.56h-2.13Zm-3.37-5.84h1v5.84h-1v-5.84Z" transform="translate(0 0)"/><path class="cls-2" d="M15.92,111v-7.77H14.19v-1.79h-2.1v1.79H10.36V111H8.3v2.49H18V111H15.92Zm-3.28-5.67h1V111h-1v-5.67Z" transform="translate(0 0)"/><g class="cls-25"><rect class="cls-2" x="8.3" y="106.24" width="9.69" height="12.05"/></g><polyline class="cls-22" points="8.3 109.71 8.3 99.61 17.98 99.61 17.98 106.13"/><polygon class="cls-2" points="16.86 105.8 17.98 107.74 19.1 105.8 16.86 105.8"/><path class="cls-2" d="M16.35,132.07v-8.22H14.52V122H12.31v1.89H10.48v8.22H8.3v2.63H18.53v-2.63H16.35Zm-3.46-6h1.05v6H12.89v-6Z" transform="translate(0 0)"/><g class="cls-26"><rect class="cls-2" x="8.3" y="127.02" width="10.24" height="12.73"/></g><polyline class="cls-22" points="8.3 130.81 8.3 120.14 11.58 120.14"/><polygon class="cls-2" points="11.25 121.26 13.19 120.14 11.25 119.02 11.25 121.26"/></svg>