<svg id="Capa_1" data-name="Capa 1" xmlns="http://www.w3.org/2000/svg" viewBox="0 0 115.13 136.86"><defs><style>.cls-1{font-size:13.73px;font-family:ITC Avant Garde Gothic Std;font-weight:700;}.cls-1,.cls-2{fill:#414042;}</style></defs><title>logo-text</title><text class="cls-1" transform="translate(0 118.17)">T<tspan x="5.89" y="0">aula pe</tspan><tspan x="60.55" y="0">r</tspan><tspan x="65.67" y="0">iòdica </tspan><tspan x="22.53" y="14.97">cas</tspan><tspan x="48.01" y="14.97">t</tspan><tspan x="52.55" y="14.97">elle</tspan><tspan x="78.15" y="14.97">r</tspan><tspan x="82.93" y="14.97">a</tspan></text><path class="cls-2" d="M64.79,48.67c4.54,0,6.23.7,7.56,1.79A8.34,8.34,0,0,1,75.24,57a8.86,8.86,0,0,1-2.59,6.43c-1.69,1.43-3.35,2.12-7.16,2.12H63V73.2H56.77V48.67h8ZM63,60h2.29a6.14,6.14,0,0,0,2.42-.36,2.55,2.55,0,0,0,1.49-2.59,2.45,2.45,0,0,0-1.56-2.52,6.76,6.76,0,0,0-2.59-.36H63V60Z" transform="translate(-14.47 -4.04)"/><path class="cls-2" d="M44.38,41H37.15V32.74H60.92V41H53.74V64.59H44.38V41Z" transform="translate(-14.47 -4.04)"/><path class="cls-2" d="M106.92,52.52A15.73,15.73,0,0,1,91.41,64.59a15.93,15.93,0,1,1-.08-31.85A15.7,15.7,0,0,1,106.92,45H98.71a8,8,0,0,0-7.42-5.35c-5.27,0-8.21,4.6-8.21,9,0,4.65,3.15,9.13,8.25,9.13,4.89,0,6.88-4.11,7.38-5.19h8.21Z" transform="translate(-14.47 -4.04)"/><path class="cls-2" d="M113,12V93.9H31.11V12H113m8-8H23.11V101.9H121V4h0Z" transform="translate(-14.47 -4.04)"/></svg>