<svg id="Capa_1" data-name="Capa 1" xmlns="http://www.w3.org/2000/svg" xmlns:xlink="http://www.w3.org/1999/xlink" viewBox="0 0 141.73 141.73"><defs><style>.cls-1,.cls-13,.cls-19,.cls-4,.cls-5{fill:#fff;}.cls-11,.cls-12,.cls-16,.cls-2{fill:none;}.cls-16,.cls-19,.cls-2{stroke:#fff;}.cls-19,.cls-2{stroke-miterlimit:10;stroke-width:0.25px;}.cls-14,.cls-3,.cls-9{fill:#4fbb7d;}.cls-4{font-size:43px;}.cls-10,.cls-13,.cls-4,.cls-5,.cls-8,.cls-9{font-family:ITC Avant Garde Gothic Std;}.cls-4,.cls-5,.cls-9{font-weight:700;}.cls-5{font-size:30.62px;}.cls-6{font-size:30.62px;font-family:Austin Cyr;font-style:italic;}.cls-10,.cls-7,.cls-8{fill:#b3dcbe;}.cls-8{font-size:3.28px;}.cls-9{font-size:2.2px;}.cls-10{font-size:3.77px;}.cls-11,.cls-12,.cls-14{stroke:#b1dcbd;}.cls-11,.cls-12,.cls-14,.cls-16{stroke-linejoin:round;}.cls-12,.cls-14,.cls-16{stroke-linecap:round;}.cls-13{font-size:6px;}.cls-15{clip-path:url(#clip-path);}.cls-16{stroke-width:0.75px;}.cls-17{clip-path:url(#clip-path-2);}.cls-18{clip-path:url(#clip-path-3);}</style><clipPath id="clip-path" transform="translate(0 0)"><path class="cls-1" d="M15.92,111v-7.77H14.19v-1.79h-2.1v1.79H10.36V111H8.3v2.49H18V111H15.92Zm-3.28-5.67h1V111h-1v-5.67Z"/></clipPath><clipPath id="clip-path-2" transform="translate(0 0)"><path class="cls-1" d="M16.35,132V123.8H14.53v-1.89H12.31v1.89H10.48V132H8.3v2.63H18.54V132H16.35Zm-3.46-6h1.05v6H12.89v-6Z"/></clipPath><clipPath id="clip-path-3" transform="translate(0 0)"><path class="cls-2" d="M131.14,131.89v-8h-1.78v-1.84H127.2v1.84h-1.78v8h-2.12v2.56h10v-2.56h-2.13Zm-3.37-5.84h1v5.84h-1v-5.84Z"/></clipPath></defs><title>pd5s</title><rect class="cls-3" x="2" y="2" width="137.73" height="137.73"/><path class="cls-1" d="M137.73,4V137.73H4V4H137.73m4-4H0V141.73H141.73V0h0Z" transform="translate(0 0)"/><text class="cls-4" transform="translate(28.54 70.86)">P</text><text class="cls-5" transform="translate(55.79 70.86) scale(0.91 1)">d</text><text class="cls-4" transform="translate(75.18 70.86)">5<tspan class="cls-6" x="26.58" y="0">s</tspan></text><text/><circle class="cls-7" cx="130.37" cy="7.51" r="0.68"/><path class="cls-7" d="M131.5,10.38a0.43,0.43,0,0,1-.43.43h-1.39a0.43,0.43,0,0,1-.43-0.43V8.81a0.43,0.43,0,0,1,.43-0.43h1.39a0.43,0.43,0,0,1,.43.43v1.57h0Z" transform="translate(0 0)"/><path class="cls-7" d="M131,13.11a0.33,0.33,0,0,1-.33.33h-0.51a0.34,0.34,0,0,1-.33-0.33V10.84a0.34,0.34,0,0,1,.33-0.34h0.51a0.34,0.34,0,0,1,.33.34v2.27Z" transform="translate(0 0)"/><text/><path class="cls-7" d="M131,16.8a0.4,0.4,0,0,0,.26.09,0.41,0.41,0,0,0,.32-0.15,0.42,0.42,0,0,0-.06-0.59l-1-.82a0.41,0.41,0,0,0-.51,0l-1,.82a0.42,0.42,0,0,0-.06.59,0.41,0.41,0,0,0,.58.06l0.36-.29V21l-0.36-.29a0.41,0.41,0,1,0-.52.64l1,0.83a0.41,0.41,0,0,0,.51,0l1-.83a0.41,0.41,0,0,0-.52-0.64l-0.36.29V16.51Z" transform="translate(0 0)"/><text class="cls-8" transform="translate(131.93 19.67)">m</text><text/><path class="cls-7" d="M132.91,29l-0.6-2.5a0.16,0.16,0,0,0-.14-0.11h-1a1.13,1.13,0,0,0,.26-0.73,1,1,0,0,0-1-1,1.05,1.05,0,0,0-1,1.06,1.1,1.1,0,0,0,.26.71h-0.95a0.17,0.17,0,0,0-.14.11L127.84,29a0.16,0.16,0,0,0,0,.13,0.14,0.14,0,0,0,.1.07h4.83a0.17,0.17,0,0,0,.1-0.08A0.2,0.2,0,0,0,132.91,29Zm-2.54-3.91a0.52,0.52,0,1,1-.51.52A0.51,0.51,0,0,1,130.37,25.09Z" transform="translate(0 0)"/><text class="cls-9" transform="translate(129.83 28.62)">T</text><text class="cls-10" transform="translate(8.3 11.97)">pts</text><text/><line class="cls-11" x1="3.99" y1="116.17" x2="137.83" y2="116.17"/><line class="cls-12" x1="70.87" y1="99.61" x2="70.87" y2="132.73"/><text class="cls-13" transform="translate(83.41 108.53) scale(0.58 0.58)">%</text><text class="cls-13" transform="translate(83.41 126.85) scale(0.58 0.58)">%</text><text class="cls-13" transform="translate(55.54 108.53) scale(0.58 0.58)">% </text><text class="cls-13" transform="translate(55.49 126.85) scale(0.58 0.58)">% </text><ellipse class="cls-14" cx="70.87" cy="116.58" rx="9.27" ry="9.31"/><text/><path class="cls-1" d="M15.92,111v-7.77H14.19v-1.79h-2.1v1.79H10.36V111H8.3v2.49H18V111H15.92Zm-3.28-5.67h1V111h-1v-5.67Z" transform="translate(0 0)"/><g class="cls-15"><rect class="cls-1" x="8.3" y="106.24" width="9.68" height="12.05"/></g><polyline class="cls-16" points="8.3 109.71 8.3 99.61 17.98 99.61 17.98 106.13"/><polygon class="cls-1" points="16.86 105.8 17.98 107.74 19.1 105.8 16.86 105.8"/><path class="cls-1" d="M16.35,132V123.8H14.53v-1.89H12.31v1.89H10.48V132H8.3v2.63H18.54V132H16.35Zm-3.46-6h1.05v6H12.89v-6Z" transform="translate(0 0)"/><g class="cls-17"><rect class="cls-1" x="8.3" y="126.96" width="10.24" height="12.73"/></g><polyline class="cls-16" points="8.3 130.76 8.3 120.08 11.58 120.08"/><polygon class="cls-1" points="11.25 121.21 13.19 120.08 11.25 118.96 11.25 121.21"/><polygon class="cls-2" points="129.23 105.6 130.24 105.6 130.24 107.5 132.55 107.92 132.55 103.47 130.8 103.47 130.8 101.65 128.67 101.65 128.67 103.47 126.92 103.47 126.92 106.89 129.23 107.31 129.23 105.6"/><polygon class="cls-1" points="131.28 107.55 128.96 107.13 128.96 110.98 127.95 110.98 127.95 106.94 125.64 106.52 125.64 110.98 123.54 110.98 123.54 113.5 133.37 113.5 133.37 110.98 131.28 110.98 131.28 107.55"/><polyline class="cls-16" points="123.22 131.23 123.22 127.67 133.19 127.67 133.19 130.45"/><polygon class="cls-1" points="132.25 130.17 133.19 131.79 134.13 130.17 132.25 130.17"/><g class="cls-18"><polygon class="cls-19" points="133.26 139.38 123.29 139.38 123.29 126.97 133.26 126.99 133.26 139.38"/></g><path class="cls-2" d="M131.14,131.89v-8h-1.78v-1.84H127.2v1.84h-1.78v8h-2.12v2.56h10v-2.56h-2.13Zm-3.37-5.84h1v5.84h-1v-5.84Z" transform="translate(0 0)"/></svg>