<svg id="Capa_1" data-name="Capa 1" xmlns="http://www.w3.org/2000/svg" xmlns:xlink="http://www.w3.org/1999/xlink" viewBox="0 0 141.78 141.74"><defs><style>.cls-1,.cls-12,.cls-4,.cls-5{fill:#b1dcbd;}.cls-13,.cls-2,.cls-8{fill:#4fbb7d;}.cls-19,.cls-3{fill:#fff;}.cls-4{font-size:43px;}.cls-12,.cls-4,.cls-5,.cls-7,.cls-8,.cls-9{font-family:ITC Avant Garde Gothic Std;}.cls-4,.cls-5,.cls-8{font-weight:700;}.cls-5{font-size:30.62px;}.cls-6,.cls-7,.cls-9{fill:#b3dcbe;}.cls-7{font-size:3.28px;}.cls-8{font-size:2.2px;}.cls-9{font-size:3.77px;}.cls-10,.cls-11,.cls-15,.cls-17{fill:none;}.cls-10,.cls-11,.cls-13,.cls-15,.cls-17{stroke:#b1dcbd;stroke-linejoin:round;}.cls-11,.cls-13{stroke-linecap:round;}.cls-12{font-size:6px;}.cls-14{clip-path:url(#clip-path);}.cls-15{stroke-width:0.75px;}.cls-16{clip-path:url(#clip-path-2);}.cls-17{stroke-width:0.25px;}.cls-18{clip-path:url(#clip-path-3);}.cls-19{opacity:0.2;}</style><clipPath id="clip-path" transform="translate(0.05 0.01)"><path class="cls-1" d="M15.87,111v-7.77H14.14v-1.79H12v1.79H10.31V111H8.25v2.49h9.68V111H15.87Zm-3.28-5.67h1V111h-1v-5.67Z"/></clipPath><clipPath id="clip-path-2" transform="translate(0.05 0.01)"><path class="cls-1" d="M16.31,132V123.8H14.48v-1.89H12.26v1.89H10.43V132H8.25v2.63H18.49V132H16.31Zm-3.46-6H13.9v6H12.84v-6Z"/></clipPath><clipPath id="clip-path-3" transform="translate(0.05 0.01)"><path class="cls-1" d="M131.09,131.89v-8h-1.78v-1.84h-2.16v1.84h-1.78v8h-2.12v2.56h10v-2.56h-2.13Zm-3.37-5.84h1v5.84h-1v-5.84Z"/></clipPath></defs><title>8d7</title><rect class="cls-2" x="2" y="2.01" width="137.73" height="137.73"/><path class="cls-3" d="M137.68,4V137.73H4V4H137.68m4-4H0V141.73H141.68V0h0Z" transform="translate(0.05 0.01)"/><text class="cls-4" transform="translate(34.69 70.87)">8</text><text class="cls-5" transform="translate(61.17 70.87) scale(0.91 1)">d</text><text class="cls-4" transform="translate(80.56 70.87)">7</text><text x="0.05" y="0.01"/><circle class="cls-6" cx="130.37" cy="7.52" r="0.68"/><path class="cls-6" d="M131.45,10.38a0.43,0.43,0,0,1-.43.43h-1.39a0.43,0.43,0,0,1-.43-0.43V8.81a0.43,0.43,0,0,1,.43-0.43H131a0.43,0.43,0,0,1,.43.43v1.57h0Z" transform="translate(0.05 0.01)"/><path class="cls-6" d="M130.91,13.11a0.33,0.33,0,0,1-.33.33h-0.51a0.34,0.34,0,0,1-.33-0.33V10.84a0.34,0.34,0,0,1,.33-0.34h0.51a0.34,0.34,0,0,1,.33.34v2.27Z" transform="translate(0.05 0.01)"/><text x="0.05" y="0.01"/><path class="cls-6" d="M131,16.8a0.4,0.4,0,0,0,.26.09,0.41,0.41,0,0,0,.32-0.15,0.42,0.42,0,0,0-.06-0.59l-1-.82a0.41,0.41,0,0,0-.51,0l-1,.82a0.42,0.42,0,0,0-.06.59,0.41,0.41,0,0,0,.58.06l0.36-.29V21l-0.36-.29a0.41,0.41,0,1,0-.52.64l1,0.83a0.41,0.41,0,0,0,.51,0l1-.83a0.41,0.41,0,0,0,.06-0.58,0.41,0.41,0,0,0-.58-0.06L130.6,21V16.51Z" transform="translate(0.05 0.01)"/><text class="cls-7" transform="translate(131.93 19.68)">m</text><text x="0.05" y="0.01"/><path class="cls-6" d="M132.86,29l-0.6-2.5a0.16,0.16,0,0,0-.14-0.11h-1a1.13,1.13,0,0,0,.26-0.73,1,1,0,0,0-1-1,1.05,1.05,0,0,0-1,1.06,1.1,1.1,0,0,0,.26.71h-0.95a0.17,0.17,0,0,0-.14.11L127.79,29a0.16,0.16,0,0,0,0,.13,0.14,0.14,0,0,0,.1.07h4.83a0.17,0.17,0,0,0,.1-0.08A0.21,0.21,0,0,0,132.86,29Zm-2.54-3.91a0.52,0.52,0,1,1-.51.52A0.51,0.51,0,0,1,130.33,25.09Z" transform="translate(0.05 0.01)"/><text class="cls-8" transform="translate(129.83 28.63)">T</text><text class="cls-9" transform="translate(8.3 11.98)">pts</text><text x="0.05" y="0.01"/><line class="cls-10" x1="4" y1="116.18" x2="137.83" y2="116.18"/><line class="cls-11" x1="70.87" y1="99.62" x2="70.87" y2="132.74"/><text class="cls-12" transform="translate(83.41 108.54) scale(0.58 0.58)">%</text><text class="cls-12" transform="translate(83.41 126.86) scale(0.58 0.58)">%</text><text class="cls-12" transform="translate(55.54 108.54) scale(0.58 0.58)">% </text><text class="cls-12" transform="translate(55.49 126.86) scale(0.58 0.58)">% </text><ellipse class="cls-13" cx="70.87" cy="116.59" rx="9.27" ry="9.31"/><text x="0.05" y="0.01"/><path class="cls-1" d="M15.87,111v-7.77H14.14v-1.79H12v1.79H10.31V111H8.25v2.49h9.68V111H15.87Zm-3.28-5.67h1V111h-1v-5.67Z" transform="translate(0.05 0.01)"/><g class="cls-14"><rect class="cls-1" x="8.3" y="106.25" width="9.68" height="12.05"/></g><polyline class="cls-15" points="8.3 109.72 8.3 99.62 17.98 99.62 17.98 106.14"/><polygon class="cls-1" points="16.86 105.81 17.98 107.75 19.1 105.81 16.86 105.81"/><path class="cls-1" d="M16.31,132V123.8H14.48v-1.89H12.26v1.89H10.43V132H8.25v2.63H18.49V132H16.31Zm-3.46-6H13.9v6H12.84v-6Z" transform="translate(0.05 0.01)"/><g class="cls-16"><rect class="cls-1" x="8.3" y="126.97" width="10.24" height="12.73"/></g><polyline class="cls-15" points="8.3 130.77 8.3 120.09 11.58 120.09"/><polygon class="cls-1" points="11.25 121.22 13.19 120.09 11.25 118.97 11.25 121.22"/><polygon class="cls-17" points="129.23 105.61 130.24 105.61 130.24 107.5 132.55 107.93 132.55 103.48 130.8 103.48 130.8 101.66 128.67 101.66 128.67 103.48 126.92 103.48 126.92 106.9 129.23 107.32 129.23 105.61"/><polygon class="cls-1" points="131.28 107.56 128.96 107.13 128.96 110.99 127.95 110.99 127.95 106.95 125.64 106.53 125.64 110.99 123.54 110.99 123.54 113.51 133.37 113.51 133.37 110.99 131.28 110.99 131.28 107.56"/><polyline class="cls-15" points="123.22 131.24 123.22 127.68 133.19 127.68 133.19 130.46"/><polygon class="cls-1" points="132.26 130.18 133.19 131.8 134.13 130.18 132.26 130.18"/><path class="cls-1" d="M131.09,131.89v-8h-1.78v-1.84h-2.16v1.84h-1.78v8h-2.12v2.56h10v-2.56h-2.13Zm-3.37-5.84h1v5.84h-1v-5.84Z" transform="translate(0.05 0.01)"/><g class="cls-18"><polygon class="cls-1" points="133.26 139.38 123.29 139.38 123.29 126.98 133.26 127 133.26 139.38"/></g><rect class="cls-2" x="129.79" y="9.61" width="1.18" height="1.22"/><rect class="cls-19" x="0.05" width="141.73" height="141.73"/></svg>