<svg id="Capa_1" data-name="Capa 1" xmlns="http://www.w3.org/2000/svg" xmlns:xlink="http://www.w3.org/1999/xlink" viewBox="0 0 141.73 141.73"><defs><style>@import url(https://www.fontify.me/wf/8652fdc67e59013a6b1788b44c690e4f);@import url(https://www.fontify.me/wf/72b7a2c87ee96cb3986195037f38dd01);.cls-1,.cls-11,.cls-16,.cls-18,.cls-23,.cls-4,.cls-5,.cls-6,.cls-7{fill:#fff;font-family: 'font72197';}.cls-14,.cls-15,.cls-2,.cls-20{fill:none;}.cls-2,.cls-20,.cls-23{stroke:#fff;}.cls-2,.cls-23{stroke-miterlimit:10;stroke-width:0.25px;}.cls-10,.cls-3{fill:#fbb034;}.cls-4,.cls-6{font-size:43px;}.cls-10,.cls-11,.cls-16,.cls-18,.cls-4,.cls-5,.cls-6,.cls-7,.cls-9{font-family: 'font72197';}.cls-10,.cls-13,.cls-17,.cls-18,.cls-4,.cls-5,.cls-6{font-weight:700;}.cls-4{letter-spacing:-1px;}.cls-5{font-size:30.62px;}.cls-7{font-size:6.79px;}.cls-12,.cls-8,.cls-9{fill:#ffd8a0;}.cls-9{font-size:3.28px;}.cls-10{font-size:2.2px;}.cls-11{font-size:7.25px;}.cls-12{font-size:3.77px;}.cls-13{font-size:8.23px;fill:#ffd597;font-family:'font50939';font-style:italic;}.cls-14,.cls-15{stroke:#ffd89f;}.cls-14,.cls-15,.cls-20{stroke-linejoin:round;}.cls-15,.cls-20{stroke-linecap:round;}.cls-16,.cls-18{font-size:7.42px;}.cls-19{clip-path:url(#clip-path);}.cls-20{stroke-width:0.75px;}.cls-21{clip-path:url(#clip-path-2);}.cls-22{clip-path:url(#clip-path-3);}</style><clipPath id="clip-path" transform="translate(0 0)"><path class="cls-1" d="M15.92,111v-7.77H14.19v-1.79h-2.1v1.79H10.36V111H8.3v2.49H18V111H15.92Zm-3.28-5.67h1V111h-1v-5.67Z"/></clipPath><clipPath id="clip-path-2" transform="translate(0 0)"><path class="cls-1" d="M16.35,132.11V123.9H14.52V122H12.31v1.89H10.48v8.22H8.3v2.63H18.53v-2.63H16.35Zm-3.46-6h1.05v6H12.89v-6Z"/></clipPath><clipPath id="clip-path-3" transform="translate(0 0)"><path class="cls-2" d="M131.21,131.77v-8h-1.78v-1.84h-2.16v1.84h-1.78v8h-2.12v2.56h10v-2.56h-2.13Zm-3.37-5.84h1v5.84h-1v-5.84Z"/></clipPath></defs><title>pd6</title><rect class="cls-3" x="2" y="2" width="137.73" height="137.73"/><path class="cls-1" d="M137.73,4V137.73H4V4H137.73m4-4H0V141.73H141.73V0h0Z" transform="translate(0 0)"/><text class="cls-4" transform="translate(34.59 67.83)">P</text><text class="cls-5" transform="translate(60.12 67.83) scale(0.91 1)">d</text><text class="cls-6" transform="translate(79.51 67.83)">6</text><text class="cls-7" transform="translate(118.35 12.66)">54</text><circle class="cls-8" cx="130.37" cy="7.51" r="0.68"/><path class="cls-8" d="M131.5,10.38a0.43,0.43,0,0,1-.43.43h-1.39a0.43,0.43,0,0,1-.43-0.43V8.81a0.43,0.43,0,0,1,.43-0.43h1.39a0.43,0.43,0,0,1,.43.43v1.57h0Z" transform="translate(0 0)"/><path class="cls-8" d="M131,13.11a0.33,0.33,0,0,1-.33.33h-0.51a0.34,0.34,0,0,1-.34-0.33V10.84a0.34,0.34,0,0,1,.34-0.34h0.51a0.34,0.34,0,0,1,.33.34v2.27Z" transform="translate(0 0)"/><text class="cls-7" transform="translate(116.75 21.07)">7,4</text><path class="cls-8" d="M131,16.8a0.4,0.4,0,0,0,.26.09,0.41,0.41,0,0,0,.32-0.15,0.42,0.42,0,0,0-.06-0.59l-1-.82a0.41,0.41,0,0,0-.51,0l-1,.82a0.42,0.42,0,0,0-.06.59,0.41,0.41,0,0,0,.58.06l0.36-.29V21l-0.36-.29a0.41,0.41,0,1,0-.52.64l1,0.83a0.41,0.41,0,0,0,.51,0l1-.83a0.41,0.41,0,0,0-.52-0.64l-0.36.29V16.51Z" transform="translate(0 0)"/><text class="cls-9" transform="translate(131.93 19.67)">m</text><text class="cls-7" transform="translate(122.6 29.48)">4</text><path class="cls-8" d="M132.91,29l-0.6-2.5a0.16,0.16,0,0,0-.14-0.12h-1a1.13,1.13,0,0,0,.26-0.73,1,1,0,0,0-1-1,1.05,1.05,0,0,0-1,1.06,1.09,1.09,0,0,0,.26.71h-1a0.17,0.17,0,0,0-.14.11L127.84,29a0.16,0.16,0,0,0,0,.13,0.14,0.14,0,0,0,.1.07h4.83a0.17,0.17,0,0,0,.1-0.08A0.21,0.21,0,0,0,132.91,29Zm-2.54-3.91a0.52,0.52,0,1,1-.51.51A0.51,0.51,0,0,1,130.37,25.09Z" transform="translate(0 0)"/><text class="cls-10" transform="translate(129.83 28.62)">T</text><text class="cls-11" transform="translate(8.3 12.91)">269/318 <tspan class="cls-12" x="32.54" y="-0.94">pts</tspan></text><text/><text class="cls-13" transform="translate(54.4 82.64)">Pilar de sis<tspan x="-5.08" y="7.99">Espadat de sis</tspan></text><line class="cls-14" x1="3.99" y1="116.17" x2="137.73" y2="116.17"/><line class="cls-15" x1="70.87" y1="99.61" x2="70.87" y2="132.73"/><text class="cls-16" transform="translate(83.41 110.53)"><tspan class="cls-17">233 </tspan><tspan x="14.86" y="0">20</tspan></text><text class="cls-16" transform="translate(106.14 108.06) scale(0.58 0.58)">%</text><text class="cls-16" transform="translate(83.41 128.85)"><tspan class="cls-17">26 </tspan><tspan x="10.57" y="0">2</tspan></text><text class="cls-16" transform="translate(97.9 126.38) scale(0.58 0.58)">%</text><text class="cls-16" transform="translate(33.84 110.53)">59</text><text class="cls-16" transform="translate(41.77 108.06) scale(0.58 0.58)">% </text><text class="cls-18" transform="translate(45.96 110.53)">640</text><text class="cls-16" transform="translate(33.79 128.85)">19</text><text class="cls-16" transform="translate(41.72 126.38) scale(0.58 0.58)">% </text><text class="cls-18" transform="translate(45.91 128.85)">203</text><path class="cls-1" d="M15.92,111v-7.77H14.19v-1.79h-2.1v1.79H10.36V111H8.3v2.49H18V111H15.92Zm-3.28-5.67h1V111h-1v-5.67Z" transform="translate(0 0)"/><g class="cls-19"><rect class="cls-1" x="8.3" y="106.2" width="9.68" height="12.05"/></g><polyline class="cls-20" points="8.3 109.67 8.3 99.57 17.98 99.57 17.98 106.09"/><polygon class="cls-1" points="16.86 105.76 17.98 107.7 19.1 105.76 16.86 105.76"/><path class="cls-1" d="M16.35,132.11V123.9H14.52V122H12.31v1.89H10.48v8.22H8.3v2.63H18.53v-2.63H16.35Zm-3.46-6h1.05v6H12.89v-6Z" transform="translate(0 0)"/><g class="cls-21"><rect class="cls-1" x="8.3" y="127.06" width="10.24" height="12.73"/></g><polyline class="cls-20" points="8.3 130.86 8.3 120.18 11.58 120.18"/><polygon class="cls-1" points="11.25 121.3 13.19 120.18 11.25 119.06 11.25 121.3"/><polygon class="cls-2" points="129.23 105.6 130.24 105.6 130.24 107.5 132.55 107.92 132.55 103.47 130.8 103.47 130.8 101.65 128.67 101.65 128.67 103.47 126.92 103.47 126.92 106.89 129.23 107.31 129.23 105.6"/><polygon class="cls-1" points="131.27 107.55 128.96 107.13 128.96 110.98 127.95 110.98 127.95 106.94 125.64 106.52 125.64 110.98 123.54 110.98 123.54 113.5 133.37 113.5 133.37 110.98 131.27 110.98 131.27 107.55"/><polyline class="cls-20" points="123.29 131.1 123.29 127.54 133.26 127.54 133.26 130.32"/><polygon class="cls-1" points="132.33 130.05 133.26 131.66 134.2 130.05 132.33 130.05"/><g class="cls-22"><polygon class="cls-23" points="133.33 139.25 123.36 139.25 123.36 126.85 133.33 126.86 133.33 139.25"/></g><path class="cls-2" d="M131.21,131.77v-8h-1.78v-1.84h-2.16v1.84h-1.78v8h-2.12v2.56h10v-2.56h-2.13Zm-3.37-5.84h1v5.84h-1v-5.84Z" transform="translate(0 0)"/></svg>