<svg id="Capa_1" data-name="Capa 1" xmlns="http://www.w3.org/2000/svg" viewBox="0 0 137.41 137.41"><defs><style>.cls-1{fill:#414042;}</style></defs><title>logo</title><path class="cls-1" d="M60.69,64.82c6.38,0,8.75,1,10.61,2.51a11.71,11.71,0,0,1,4.05,9.12c0,3.49-1.44,7.17-3.63,9-2.37,2-4.7,3-10.06,3H58.23v10.8h-8.8V64.82H60.69ZM58.23,80.74h3.21a8.62,8.62,0,0,0,3.4-.51,3.58,3.58,0,0,0,2.09-3.63,3.45,3.45,0,0,0-2.19-3.54,9.49,9.49,0,0,0-3.63-.51H58.23v8.19Z" transform="translate(-2.16 -2.16)"/><path class="cls-1" d="M32,54H21.87V42.46H55.26V54H45.17V87.19H32V54Z" transform="translate(-2.16 -2.16)"/><path class="cls-1" d="M119.86,70.24A22.09,22.09,0,0,1,98.07,87.19,22.37,22.37,0,1,1,98,42.46c13.51,0,20.74,10.43,21.9,17.18H108.33A11.17,11.17,0,0,0,97.9,52.13c-7.4,0-11.53,6.47-11.53,12.58,0,6.52,4.43,12.81,11.59,12.81,6.87,0,9.67-5.77,10.37-7.28h11.53Z" transform="translate(-2.16 -2.16)"/><path class="cls-1" d="M131.57,10.16V131.57H10.16V10.16H131.57m8-8H2.16V139.57H139.57V2.16h0Z" transform="translate(-2.16 -2.16)"/></svg>