<svg id="Capa_1" data-name="Capa 1" xmlns="http://www.w3.org/2000/svg" xmlns:xlink="http://www.w3.org/1999/xlink" viewBox="0 0 141.74 142.53"><defs><style>.cls-1,.cls-13,.cls-4,.cls-5{fill:#87bed3;}.cls-2,.cls-21,.cls-9{fill:#008eb0;}.cls-22,.cls-3{fill:#fff;}.cls-4{font-size:43px;}.cls-10,.cls-13,.cls-14,.cls-4,.cls-5,.cls-8,.cls-9{font-family:ITC Avant Garde Gothic Std;}.cls-4,.cls-5,.cls-9{font-weight:700;}.cls-5,.cls-6{font-size:30.62px;}.cls-6{font-family:Austin Cyr;font-style:italic;}.cls-10,.cls-7,.cls-8{fill:#8abfd4;}.cls-8{font-size:3.28px;}.cls-9{font-size:2.2px;}.cls-10{font-size:3.77px;}.cls-11,.cls-12,.cls-15,.cls-16,.cls-17{fill:none;}.cls-11,.cls-12,.cls-16,.cls-17{stroke:#87bed3;stroke-linejoin:round;}.cls-12{stroke-linecap:round;}.cls-13,.cls-14{font-size:7.42px;}.cls-14{fill:#87bdd2;}.cls-16,.cls-21{stroke-width:0.25px;}.cls-17{stroke-width:0.75px;}.cls-18{clip-path:url(#clip-path);}.cls-19{clip-path:url(#clip-path-2);}.cls-20{clip-path:url(#clip-path-3);}.cls-21{stroke:#87bdd2;stroke-miterlimit:10;}.cls-22{opacity:0.2;}</style><clipPath id="clip-path" transform="translate(0.01 0.8)"><path class="cls-1" d="M131.1,131v-8h-1.78v-1.84h-2.16V123h-1.78v8h-2.12v2.56h10V131H131.1Zm-3.37-5.84h1V131h-1v-5.84Z"/></clipPath><clipPath id="clip-path-2" transform="translate(0.01 0.8)"><path class="cls-1" d="M16,110.22v-7.77H14.22v-1.79h-2.1v1.79H10.4v7.77H8.33v2.49H18v-2.49H16Zm-3.28-5.67h1v5.67h-1v-5.67Z"/></clipPath><clipPath id="clip-path-3" transform="translate(0.01 0.8)"><path class="cls-1" d="M16.39,131.27v-8.22H14.56v-1.89H12.34v1.89H10.51v8.22H8.33v2.63H18.57v-2.63H16.39Zm-3.46-6H14v6H12.92v-6Z"/></clipPath></defs><title>6d6a</title><rect class="cls-2" x="2.01" y="2" width="137.73" height="137.73"/><path class="cls-3" d="M137.73,3.2V136.93H4V3.2H137.73m4-4H0V140.93H141.73V-0.8h0Z" transform="translate(0.01 0.8)"/><text class="cls-4" transform="translate(26.62 67.83)">6</text><text class="cls-5" transform="translate(53.1 67.83) scale(0.91 1)">d</text><text class="cls-4" transform="translate(72.48 67.83)">6<tspan class="cls-6" x="26.58" y="0">a</tspan></text><text x="0.01" y="0.8"/><circle class="cls-7" cx="130.38" cy="7.51" r="0.68"/><path class="cls-7" d="M131.5,9.58a0.43,0.43,0,0,1-.43.43h-1.39a0.43,0.43,0,0,1-.43-0.43V8a0.43,0.43,0,0,1,.43-0.43h1.39a0.43,0.43,0,0,1,.43.43V9.58h0Z" transform="translate(0.01 0.8)"/><path class="cls-7" d="M131,12.31a0.33,0.33,0,0,1-.33.33h-0.51a0.34,0.34,0,0,1-.34-0.33V10a0.34,0.34,0,0,1,.34-0.34h0.51A0.33,0.33,0,0,1,131,10v2.27Z" transform="translate(0.01 0.8)"/><text x="0.01" y="0.8"/><path class="cls-7" d="M131,16a0.39,0.39,0,0,0,.26.09,0.41,0.41,0,0,0,.32-0.15,0.42,0.42,0,0,0-.06-0.59l-1-.82a0.41,0.41,0,0,0-.51,0l-1,.82a0.42,0.42,0,0,0-.06.59,0.41,0.41,0,0,0,.58.06l0.36-.29V20.2l-0.36-.29a0.41,0.41,0,1,0-.52.64l1,0.83a0.43,0.43,0,0,0,.26.09,0.43,0.43,0,0,0,.26-0.09l1-.83a0.41,0.41,0,1,0-.52-0.64l-0.36.29V15.71Z" transform="translate(0.01 0.8)"/><text class="cls-8" transform="translate(131.94 19.67)">m</text><text x="0.01" y="0.8"/><path class="cls-7" d="M132.91,28.2l-0.6-2.5a0.16,0.16,0,0,0-.14-0.12h-1a1.13,1.13,0,0,0,.26-0.73,1,1,0,0,0-1-1,1.05,1.05,0,0,0-1,1.06,1.09,1.09,0,0,0,.26.71h-0.95a0.17,0.17,0,0,0-.14.11l-0.69,2.53a0.16,0.16,0,0,0,0,.13,0.15,0.15,0,0,0,.1.07h4.83a0.17,0.17,0,0,0,.1-0.08A0.21,0.21,0,0,0,132.91,28.2Zm-2.54-3.91a0.52,0.52,0,1,1-.51.51A0.51,0.51,0,0,1,130.37,24.29Z" transform="translate(0.01 0.8)"/><text class="cls-9" transform="translate(129.84 28.63)">T</text><text class="cls-10" transform="translate(8.31 11.97)">Sense puntuació</text><text x="0.01" y="0.8"/><line class="cls-11" x1="4" y1="116.17" x2="137.73" y2="116.17"/><line class="cls-12" x1="70.88" y1="99.61" x2="70.88" y2="132.73"/><text class="cls-13" transform="translate(83.42 108.06) scale(0.58 0.58)">%</text><text class="cls-14" transform="translate(83.42 126.38) scale(0.58 0.58)">%</text><text class="cls-13" transform="translate(54.72 108.06) scale(0.58 0.58)">% </text><text class="cls-13" transform="translate(54.67 126.38) scale(0.58 0.58)">% </text><polygon class="cls-15" points="129.64 105.23 129.64 106.94 129.64 110.98 130.65 110.98 130.65 107.13 130.65 105.23 129.64 105.23"/><polygon class="cls-16" points="129.27 105.6 130.28 105.6 130.28 107.5 132.6 107.92 132.6 103.47 130.84 103.47 130.84 101.65 128.71 101.65 128.71 103.47 126.96 103.47 126.96 106.89 129.27 107.31 129.27 105.6"/><polygon class="cls-1" points="131.32 107.55 129.01 107.13 129.01 110.98 128 110.98 128 106.94 125.68 106.52 125.68 110.98 123.59 110.98 123.59 113.5 133.41 113.5 133.41 110.98 131.32 110.98 131.32 107.55"/><polyline class="cls-17" points="123.19 131.1 123.19 127.54 133.16 127.54 133.16 130.32"/><polygon class="cls-1" points="132.23 130.05 133.16 131.66 134.1 130.05 132.23 130.05"/><path class="cls-1" d="M131.1,131v-8h-1.78v-1.84h-2.16V123h-1.78v8h-2.12v2.56h10V131H131.1Zm-3.37-5.84h1V131h-1v-5.84Z" transform="translate(0.01 0.8)"/><g class="cls-18"><polygon class="cls-1" points="133.23 139.25 123.27 139.25 123.27 126.85 133.23 126.86 133.23 139.25"/></g><path class="cls-1" d="M16,110.22v-7.77H14.22v-1.79h-2.1v1.79H10.4v7.77H8.33v2.49H18v-2.49H16Zm-3.28-5.67h1v5.67h-1v-5.67Z" transform="translate(0.01 0.8)"/><g class="cls-19"><rect class="cls-1" x="8.34" y="106.24" width="9.68" height="12.05"/></g><polyline class="cls-17" points="8.34 109.71 8.34 99.61 18.03 99.61 18.03 106.13"/><polygon class="cls-1" points="16.9 105.8 18.03 107.74 19.15 105.8 16.9 105.8"/><path class="cls-1" d="M16.39,131.27v-8.22H14.56v-1.89H12.34v1.89H10.51v8.22H8.33v2.63H18.57v-2.63H16.39Zm-3.46-6H14v6H12.92v-6Z" transform="translate(0.01 0.8)"/><g class="cls-20"><rect class="cls-1" x="8.34" y="127.02" width="10.24" height="12.73"/></g><polyline class="cls-17" points="8.34 130.81 8.34 120.14 11.62 120.14"/><polygon class="cls-1" points="11.29 121.26 13.23 120.14 11.29 119.02 11.29 121.26"/><polygon class="cls-21" points="127.55 125.88 128.84 125.88 128.82 127.57 131 127.57 131 123.73 129.24 123.73 129.24 121.91 127.11 121.91 127.11 123.73 125.36 123.73 125.36 127.59 127.55 127.59 127.55 125.88"/><rect class="cls-2" x="129.79" y="9.6" width="1.18" height="1.22"/><rect class="cls-22" y="0.8" width="141.73" height="141.73"/></svg>