<svg id="Capa_1" data-name="Capa 1" xmlns="http://www.w3.org/2000/svg" xmlns:xlink="http://www.w3.org/1999/xlink" viewBox="0 0 142.19 141.8"><defs><style>.cls-1,.cls-11,.cls-16,.cls-18,.cls-20,.cls-7{fill:#f9b29f;}.cls-10,.cls-19,.cls-2,.cls-22{fill:#f15e4d;}.cls-28,.cls-3{fill:#fff;}.cls-4{font-size:43px;}.cls-12,.cls-4,.cls-5,.cls-8,.cls-9{fill:#f9b39f;}.cls-10,.cls-11,.cls-16,.cls-18,.cls-20,.cls-4,.cls-5,.cls-7,.cls-9{font-family:ITC Avant Garde Gothic Std;}.cls-10,.cls-13,.cls-17,.cls-18,.cls-20,.cls-4,.cls-5{font-weight:700;}.cls-5,.cls-6{font-size:30.62px;}.cls-13,.cls-6{font-family:Austin Cyr;font-style:italic;}.cls-7{font-size:6.79px;}.cls-9{font-size:3.28px;}.cls-10{font-size:2.2px;}.cls-11{font-size:7.25px;}.cls-12{font-size:3.77px;}.cls-13{font-size:8.23px;fill:#f9ac96;}.cls-14,.cls-15,.cls-21,.cls-23{fill:none;}.cls-14,.cls-15,.cls-19,.cls-23{stroke:#f9b29e;stroke-linejoin:round;}.cls-15,.cls-19{stroke-linecap:round;}.cls-16,.cls-18{font-size:7.42px;}.cls-20{font-size:8.4px;}.cls-22{stroke:#f9b29f;stroke-miterlimit:10;stroke-width:0.25px;}.cls-23{stroke-width:0.75px;}.cls-24{fill:#f9b29e;}.cls-25{clip-path:url(#clip-path);}.cls-26{clip-path:url(#clip-path-2);}.cls-27{clip-path:url(#clip-path-3);}.cls-28{opacity:0.2;}</style><clipPath id="clip-path" transform="translate(0.46 0.07)"><path class="cls-1" d="M15.9,132.07v-8.22H14.07V122H11.85v1.89H10v8.22H7.84v2.63H18.08v-2.63H15.9Zm-3.46-6h1.05v6H12.43v-6Z"/></clipPath><clipPath id="clip-path-2" transform="translate(0.46 0.07)"><path class="cls-1" d="M15.9,111.08v-8.22H14.07V101H11.85v1.89H10v8.22H7.84v2.63H18.08v-2.63H15.9Zm-3.46-6h1.05v6H12.43v-6Z"/></clipPath><clipPath id="clip-path-3" transform="translate(0.46 0.07)"><path class="cls-1" d="M130.94,132.07v-8.22h-1.83V122h-2.22v1.89h-1.83v8.22h-2.18v2.63h10.24v-2.63h-2.18Zm-3.46-6h1.05v6h-1.05v-6Z"/></clipPath></defs><title>pd9fmp</title><rect class="cls-2" x="2" y="2.07" width="137.73" height="137.73"/><path class="cls-3" d="M137.28,4V137.73H3.54V4H137.28m4-4H-0.46V141.73H141.28V0h0Z" transform="translate(0.46 0.07)"/><text class="cls-4" transform="translate(7.32 67.9)">P</text><text class="cls-5" transform="translate(34.57 67.9) scale(0.91 1)">d</text><text class="cls-4" transform="translate(53.95 67.9)">9<tspan class="cls-6" x="26.58" y="0">fmp</tspan></text><text class="cls-7" transform="translate(114.28 12.73)">480</text><circle class="cls-8" cx="130.37" cy="7.58" r="0.68"/><path class="cls-8" d="M131,10.38a0.43,0.43,0,0,1-.43.43h-1.39a0.43,0.43,0,0,1-.43-0.43V8.81a0.43,0.43,0,0,1,.43-0.43h1.39a0.43,0.43,0,0,1,.43.43v1.57h0Z" transform="translate(0.46 0.07)"/><path class="cls-8" d="M130.5,13.11a0.33,0.33,0,0,1-.33.33h-0.51a0.34,0.34,0,0,1-.34-0.33V10.84a0.34,0.34,0,0,1,.34-0.34h0.51a0.34,0.34,0,0,1,.33.34v2.27Z" transform="translate(0.46 0.07)"/><text class="cls-7" transform="translate(112.85 21.14)">11,3</text><path class="cls-8" d="M130.55,16.8a0.4,0.4,0,0,0,.26.09,0.41,0.41,0,0,0,.32-0.15,0.42,0.42,0,0,0-.06-0.59l-1-.82a0.41,0.41,0,0,0-.51,0l-1,.82a0.42,0.42,0,0,0-.06.59,0.41,0.41,0,0,0,.58.06l0.36-.29V21L129,20.71a0.41,0.41,0,1,0-.52.64l1,0.83a0.41,0.41,0,0,0,.51,0l1-.83a0.41,0.41,0,0,0,.06-0.58,0.41,0.41,0,0,0-.58-0.06l-0.36.29V16.51Z" transform="translate(0.46 0.07)"/><text class="cls-9" transform="translate(131.93 19.74)">m</text><text class="cls-7" transform="translate(112.85 29.54)">31,2</text><path class="cls-8" d="M132.45,29l-0.6-2.5a0.16,0.16,0,0,0-.14-0.11h-1a1.13,1.13,0,0,0,.26-0.73,1,1,0,0,0-1-1,1.05,1.05,0,0,0-1,1.06,1.1,1.1,0,0,0,.26.71h-0.95a0.17,0.17,0,0,0-.14.11L127.38,29a0.16,0.16,0,0,0,0,.13,0.14,0.14,0,0,0,.1.07h4.83a0.17,0.17,0,0,0,.1-0.08A0.21,0.21,0,0,0,132.45,29Zm-2.54-3.91a0.52,0.52,0,1,1-.51.52A0.51,0.51,0,0,1,129.92,25.09Z" transform="translate(0.46 0.07)"/><text class="cls-10" transform="translate(129.83 28.69)">T</text><text class="cls-11" transform="translate(8.3 12.98)">2810/2445<tspan class="cls-3" x="39.09" y="0"> </tspan><tspan class="cls-12" x="41.27" y="-0.94">pts</tspan></text><text x="0.46" y="0.07"/><text class="cls-13" transform="translate(52.02 82.7)">P<tspan x="4.94" y="0">i</tspan><tspan x="7.48" y="0">l</tspan><tspan x="9.93" y="0">a</tspan><tspan x="14.34" y="0">r </tspan><tspan x="19.59" y="0">d</tspan><tspan x="23.95" y="0">e </tspan><tspan x="29.07" y="0">n</tspan><tspan x="33.82" y="0">ou</tspan><tspan x="-28.17" y="7.99">a</tspan><tspan x="-23.76" y="7.99">m</tspan><tspan x="-16.78" y="7.99">b </tspan><tspan x="-11.13" y="7.99">f</tspan><tspan x="-8.77" y="7.99">o</tspan><tspan x="-4.88" y="7.99">l</tspan><tspan x="-2.43" y="7.99">r</tspan><tspan x="1.22" y="7.99">e</tspan><tspan x="4.7" y="7.99">, m</tspan><tspan x="15.16" y="7.99">a</tspan><tspan x="19.56" y="7.99">n</tspan><tspan x="24.4" y="7.99">i</tspan><tspan x="26.93" y="7.99">l</tspan><tspan x="29.39" y="7.99">l</tspan><tspan x="31.8" y="7.99">e</tspan><tspan x="35.31" y="7.99">s i puntals</tspan></text><line class="cls-14" x1="3.96" y1="116.24" x2="137.71" y2="116.24"/><line class="cls-15" x1="70.87" y1="99.68" x2="70.87" y2="132.8"/><text class="cls-16" transform="translate(83.41 110.6)"><tspan class="cls-17">1 </tspan><tspan x="6.28" y="0">1</tspan><tspan x="9.81" y="0">00</tspan></text><text class="cls-16" transform="translate(101.11 108.13) scale(0.58 0.58)">%</text><text class="cls-16" transform="translate(83.41 128.91)"><tspan class="cls-17">0 </tspan><tspan x="6.28" y="0">0</tspan></text><text class="cls-16" transform="translate(93.63 126.44) scale(0.58 0.58)">%</text><text class="cls-16" transform="translate(46.35 110.6)">0</text><text class="cls-16" transform="translate(50.31 108.13) scale(0.58 0.58)">% </text><text class="cls-18" transform="translate(54.5 110.6)">0</text><text class="cls-16" transform="translate(46.3 128.91)">0</text><text class="cls-16" transform="translate(50.26 126.44) scale(0.58 0.58)">% </text><text class="cls-18" transform="translate(54.45 128.91)">0</text><ellipse class="cls-19" cx="70.87" cy="116.24" rx="9.27" ry="9.31"/><text class="cls-20" transform="translate(68.32 119.3)">1</text><polygon class="cls-21" points="129.63 105.29 129.63 107.01 129.63 111.05 130.64 111.05 130.64 107.19 130.64 105.29 129.63 105.29"/><polygon class="cls-22" points="129.23 105.67 130.24 105.67 130.24 107.56 132.55 107.99 132.55 103.53 130.8 103.53 130.8 101.72 128.67 101.72 128.67 103.53 126.92 103.53 126.92 106.95 129.23 107.38 129.23 105.67"/><polygon class="cls-1" points="131.28 107.62 128.96 107.19 128.96 111.05 127.95 111.05 127.95 107.01 125.64 106.58 125.64 111.05 123.54 111.05 123.54 113.57 133.37 113.57 133.37 111.05 131.28 111.05 131.28 107.62"/><polyline class="cls-23" points="123.15 131.17 123.15 127.61 133.12 127.61 133.12 130.39"/><polygon class="cls-24" points="132.18 130.11 133.12 131.73 134.05 130.11 132.18 130.11"/><polyline class="cls-23" points="8.3 109.77 8.3 99.68 17.98 99.68 17.98 106.19"/><polygon class="cls-24" points="16.86 105.87 17.98 107.81 19.1 105.87 16.86 105.87"/><path class="cls-1" d="M15.9,132.07v-8.22H14.07V122H11.85v1.89H10v8.22H7.84v2.63H18.08v-2.63H15.9Zm-3.46-6h1.05v6H12.43v-6Z" transform="translate(0.46 0.07)"/><g class="cls-25"><rect class="cls-1" x="8.3" y="127.08" width="10.24" height="12.73"/></g><polyline class="cls-23" points="8.3 130.88 8.3 120.21 11.58 120.21"/><polygon class="cls-24" points="11.25 121.33 13.19 120.21 11.25 119.08 11.25 121.33"/><path class="cls-1" d="M15.9,111.08v-8.22H14.07V101H11.85v1.89H10v8.22H7.84v2.63H18.08v-2.63H15.9Zm-3.46-6h1.05v6H12.43v-6Z" transform="translate(0.46 0.07)"/><g class="cls-26"><rect class="cls-1" x="8.3" y="106.09" width="10.24" height="12.73"/></g><path class="cls-1" d="M130.94,132.07v-8.22h-1.83V122h-2.22v1.89h-1.83v8.22h-2.18v2.63h10.24v-2.63h-2.18Zm-3.46-6h1.05v6h-1.05v-6Z" transform="translate(0.46 0.07)"/><g class="cls-27"><rect class="cls-1" x="123.34" y="127.08" width="10.24" height="12.73"/></g><polygon class="cls-22" points="127.83 125.99 129.12 125.99 129.1 127.68 131.28 127.68 131.28 123.84 129.52 123.84 129.52 122.03 127.39 122.03 127.39 123.84 125.64 123.84 125.64 127.7 127.83 127.7 127.83 125.99"/><rect class="cls-2" x="129.78" y="9.68" width="1.18" height="1.27"/><rect class="cls-28" x="0.46" width="141.73" height="141.73"/></svg>